<svg xmlns="http://www.w3.org/2000/svg" version="1.1" viewBox="-5.0 -10.0 110.0 135.0">
 <path d="m88.629 58.109c-1.3398-0.89453-3.2422-0.83594-5.4766-0.23828-0.32812-0.66406-0.79297-1.1914-1.418-1.543-1.8398-1.0391-4.375-0.35156-6.1211 0.25781-0.62109 0.21875-1.6602 0.69141-3.0938 1.3438-3.2227 1.4727-8.3828 3.8164-12.223 4.668-0.25781-1.707-1.5352-3.0391-3.5547-3.5898-5.1367-1.3945-9.1328-2.9141-12.578-4.793-3.8828-2.1133-9.543-3.6094-21.918 0.92969-0.55078-1.1562-1.7227-1.9648-3.0859-1.9648h-5.6914c-1.8906 0-3.4258 1.5391-3.4258 3.4258v22.18c0 1.8906 1.5391 3.4258 3.4258 3.4258h5.6914c1.8906 0 3.4258-1.5391 3.4258-3.4258v-0.88281c6.3281-2.6328 13.594-0.3125 20.031 1.7539 3.6445 1.1719 6.8281 2.1953 9.4609 2.1914 0.21484 0 0.42578-0.007812 0.63281-0.019531 6.3984-0.43359 13.707-4.1602 22.707-9.625 0.55859-0.33984 1.2734-0.75 2.1016-1.2305 6.4961-3.75 12.336-7.3711 12.441-10.488 0.023437-0.66406-0.19141-1.6172-1.3281-2.3789zm-15.188 1.8438c1.2773-0.58203 2.3789-1.0859 2.9023-1.2695 2.5781-0.89844 3.7578-0.72656 4.2969-0.42188 0.10938 0.0625 0.23438 0.15625 0.35547 0.30859-1.9453 0.72266-4.0625 1.7188-6.2305 2.7852-0.92578 0.45312-1.7266 0.84766-2.2734 1.0742-6.8984 2.8828-10.391 4.0195-13.637 4.3594 0.53125-0.57812 0.92578-1.2148 1.1758-1.875 4.1562-0.75 9.6797-3.2539 13.414-4.957zm-53.074 18.84c0 0.66406-0.54297 1.207-1.207 1.207h-5.6914c-0.66406 0-1.207-0.54297-1.207-1.207v-22.18c0-0.66406 0.54297-1.207 1.207-1.207h5.6914c0.66406 0 1.207 0.54297 1.207 1.207zm63.535-14.391c-2.3555 1.6914-5.3242 3.4062-7.4922 4.6562-0.83984 0.48438-1.5664 0.90234-2.1445 1.2539-7.5469 4.582-15.402 8.8828-21.703 9.3086-2.3281 0.15625-5.6992-0.92578-9.2656-2.0703-6.2148-1.9961-13.836-4.4375-20.711-2.0234v-18.137c11.848-4.4258 17.027-3.1172 20.516-1.2188 3.6016 1.9609 7.7539 3.5469 13.059 4.9844 1.375 0.375 2.0742 1.1953 1.9688 2.3125-0.14844 1.5312-1.8359 3.2734-4.6797 3.4805-3.1484 0.23047-6.4922-0.48828-10.211-2.1992-0.9375-0.42969-5.3086-1.6445-6.5898-1.5352-0.60938 0.050781-1.0625 0.58984-1.0117 1.1992 0.050781 0.60938 0.58984 1.0625 1.1992 1.0117 0.70312-0.042969 4.6211 0.94922 5.4727 1.3398 3.5664 1.6367 6.8438 2.4414 9.9766 2.4414 0.44531 0 0.88672-0.015625 1.3281-0.046875 0.22266-0.015625 0.42188-0.066406 0.63672-0.097656 0.003906 0 0.007812 0.003906 0.011719 0.003906 5.6836 0.28125 8.6992-0.25781 19.082-4.5938 0.60938-0.25391 1.4375-0.66016 2.3945-1.1289 1.9805-0.97266 4.4453-2.1797 6.7617-2.957 3.207-1.0781 4.4414-0.73438 4.8906-0.43359 0.35156 0.23828 0.34766 0.38672 0.34766 0.46094-0.011719 0.29688-0.31641 1.457-3.8398 3.9844zm-41.777-12.688c0.22266 0 0.44922-0.011719 0.67578-0.035156 2.9883-0.31641 5.3281-2.5586 5.3281-5.1094v-17.324l14.156-4.1641v13.09c-0.95703-0.51953-2.125-0.74219-3.3438-0.61328-2.9883 0.31641-5.3281 2.5586-5.3281 5.1094 0 1.1328 0.47656 2.1836 1.3398 2.9609 0.91406 0.82031 2.1797 1.2695 3.5469 1.2695 0.22266 0 0.44922-0.011719 0.67578-0.035157 2.9883-0.31641 5.3281-2.5586 5.3281-5.1094v-22.859c0-0.054687-0.023437-0.10156-0.03125-0.15625-0.007812-0.054687 0-0.10547-0.015625-0.15625-0.007812-0.019531-0.023437-0.035156-0.03125-0.054687-0.027343-0.074219-0.066406-0.13672-0.10547-0.20312-0.035156-0.058594-0.066406-0.11719-0.11328-0.16797s-0.10547-0.089844-0.16016-0.13281c-0.058594-0.042969-0.11328-0.085938-0.17578-0.11719-0.058594-0.027344-0.125-0.042969-0.19141-0.058594-0.074219-0.019531-0.14844-0.042968-0.22656-0.046875-0.019531 0-0.039063-0.011719-0.0625-0.011719-0.054687 0-0.10156 0.023438-0.15625 0.03125-0.054687 0.007813-0.10547 0-0.15625 0.015626l-16.379 4.8164c-0.019531 0.007812-0.035157 0.023437-0.054688 0.03125-0.074219 0.027344-0.13672 0.066406-0.20312 0.10547-0.058594 0.035157-0.11719 0.066407-0.16797 0.11328-0.054688 0.046875-0.089844 0.10547-0.13281 0.16406s-0.085937 0.10938-0.11719 0.17578c-0.03125 0.0625-0.042969 0.125-0.0625 0.19141-0.019532 0.074218-0.039063 0.14453-0.046876 0.22656 0 0.023438-0.011718 0.039063-0.011718 0.0625v19.277c-0.95703-0.51953-2.125-0.74219-3.3438-0.61328-2.9883 0.31641-5.3281 2.5586-5.3281 5.1094 0 1.1328 0.47656 2.1836 1.3398 2.9609 0.91406 0.82031 2.1797 1.2695 3.5469 1.2695zm6.0039-24.781v-2.3906l14.156-4.1641v2.3906zm10.816 17.723c-0.99609 0.10547-1.9102-0.14062-2.5039-0.67578-0.27344-0.24609-0.60156-0.67578-0.60156-1.3086 0-1.3828 1.5312-2.7109 3.3438-2.9023 0.99609-0.10547 1.9102 0.14062 2.5039 0.67578 0.27344 0.24609 0.60156 0.67578 0.60156 1.3086 0 1.3828-1.5312 2.7109-3.3398 2.9023zm-16.145-0.070312c0.15234-0.015626 0.30078-0.023438 0.44922-0.023438 0.82031 0 1.5547 0.24609 2.0547 0.69922 0.27344 0.24609 0.60156 0.67578 0.60156 1.3086 0 1.3828-1.5312 2.7109-3.3438 2.9023-0.99609 0.10547-1.9102-0.14062-2.5039-0.67578-0.27344-0.24609-0.60156-0.67578-0.60156-1.3086 0-1.3828 1.5312-2.7109 3.3438-2.9023zm22.758 8.2812c0.91406 0.82031 2.1797 1.2695 3.5469 1.2695 0.22266 0 0.44922-0.011719 0.67578-0.035157 2.9883-0.31641 5.3281-2.5586 5.3281-5.1094v-19.348c0.47266 0.4375 0.94141 0.76172 1.4219 1.0977 0.39844 0.27734 0.8125 0.5625 1.2656 0.94141 0.72266 0.59766 0.84375 1.8125 0.85156 2.4844 0.007812 0.61328 0.51172 1.1016 1.125 1.0938 0.61328-0.007813 1.1016-0.51172 1.0938-1.125-0.023438-1.8438-0.59766-3.2812-1.6562-4.1602-0.53125-0.44141-1.0039-0.76953-1.4219-1.0586-1.0938-0.75781-1.8203-1.2578-2.7969-3.2656-0.22656-0.46484-0.74219-0.71094-1.2461-0.59766-0.50391 0.11719-0.85938 0.56641-0.85938 1.082v19.277c-0.95703-0.51953-2.125-0.74219-3.3438-0.61328-2.9883 0.31641-5.3281 2.5586-5.3281 5.1094 0 1.1328 0.47656 2.1836 1.3398 2.9609zm4.2227-5.8594c0.15234-0.015624 0.30078-0.023437 0.44922-0.023437 0.82031 0 1.5508 0.24609 2.0547 0.69922 0.27344 0.24609 0.60156 0.67578 0.60156 1.3086 0 1.3828-1.5312 2.7109-3.3438 2.9023-0.99609 0.10547-1.9102-0.14062-2.5039-0.67578-0.27344-0.24609-0.60156-0.67578-0.60156-1.3086 0-1.3828 1.5312-2.7109 3.3438-2.9023z"/></svg>
