<svg xmlns="http://www.w3.org/2000/svg" version="1.1" viewBox="-5.0 -10.0 110.0 135.0">
 <path d="m19.117 56.312c0.31641 0.31641 0.51562 0.75781 0.51562 1.2383v23.113c0 0.48047-0.19922 0.91797-0.51562 1.2383-0.31641 0.31641-0.75781 0.51562-1.2383 0.51562h-5.9336c-0.48047 0-0.91797-0.19922-1.2383-0.51562-0.31641-0.31641-0.51562-0.75781-0.51562-1.2383v-23.113c0-0.48047 0.19922-0.91797 0.51562-1.2383 0.31641-0.31641 0.75781-0.51562 1.2383-0.51562h5.9336c0.48047 0 0.91797 0.19922 1.2383 0.51562zm70.145 4.3086c-2.3242-1.5547-8.6914 1.5664-12.637 3.5-1.0117 0.49609-1.8711 0.91797-2.4688 1.168-5.3867 2.25-8.8516 3.5039-11.695 4.1641-2.8516 0.66016-5.0547 0.72656-7.8984 0.58594-0.26562 0.042969-0.53516 0.074219-0.81641 0.09375-1.9688 0.14453-3.918-0.039062-5.8477-0.47266-1.9141-0.43359-3.8047-1.1172-5.6797-1.9766-0.48828-0.22656-1.9883-0.66406-3.4102-1.0039-1.125-0.26953-2.1719-0.46875-2.5469-0.4375-0.36328 0.03125-0.68359-0.24219-0.71094-0.60547-0.03125-0.36328 0.24219-0.68359 0.60547-0.71094 0.52344-0.042969 1.7188 0.17188 2.957 0.46875 1.4844 0.35547 3.0859 0.82812 3.6523 1.0898 1.793 0.82422 3.6016 1.4766 5.4219 1.8906 1.8047 0.40625 3.625 0.57812 5.4688 0.44141 2.1172-0.15625 3.6758-1.0664 4.5547-2.2109 0.40234-0.52344 0.65625-1.0938 0.75-1.6523 0.089843-0.53516 0.035156-1.0625-0.18359-1.5312-0.33203-0.71094-1.0508-1.3047-2.2031-1.6172-2.3203-0.62891-4.6211-1.3359-6.8906-2.1797-2.2617-0.83984-4.4688-1.8125-6.6094-2.9766-2.1172-1.1523-4.6289-1.9648-8.1328-1.9062-3.4883 0.058593-7.9531 0.97656-13.98 3.2578v19.965c7.1602-2.8672 15.156-0.29688 21.922 1.875 3.8672 1.2422 7.3164 2.3516 9.8398 2.1797 3.2539-0.21875 6.8516-1.3828 10.676-3.1211 3.875-1.7578 7.9648-4.0977 12.168-6.6523 0.60156-0.36719 1.3633-0.80469 2.2227-1.3008 3.8789-2.2383 9.8438-5.6797 11.609-8.3164 0.54297-0.8125 0.59766-1.5156-0.13672-2.0078zm-11.957-1.3789c-0.57422 0.19922-1.668 0.69922-3.0664 1.3398-3.8164 1.7422-9.832 4.4844-14.125 5.1953-0.17578 0.5625-0.46484 1.1172-0.85938 1.6328-0.37891 0.49609-0.85938 0.95703-1.4297 1.3516 1.4023-0.054688 2.7734-0.23047 4.3398-0.59375 2.7617-0.64062 6.1641-1.875 11.484-4.0977 0.60547-0.25391 1.4297-0.65625 2.3945-1.1289 1.9805-0.97266 4.5352-2.2227 6.9961-3.0703-0.36328-0.89062-1.0781-1.2578-1.9297-1.3359-1.1719-0.10156-2.5977 0.28516-3.8047 0.70703zm-38.566-8.2461c0.80469 0.60156 1.8789 0.95312 3.0703 0.95312 0.20312 0 0.42188-0.011719 0.65234-0.035157 1.3945-0.14844 2.6562-0.74609 3.5742-1.5898 0.94922-0.87891 1.5391-2.0273 1.5391-3.2383v-18.426l15.742-4.6289v15.242c-0.066406-0.054688-0.13281-0.10938-0.20312-0.16016-0.80469-0.60156-1.8789-0.95312-3.0703-0.95312-0.20312 0-0.42188 0.011719-0.65234 0.035156-1.3945 0.14844-2.6562 0.74609-3.5742 1.5898-0.94922 0.87891-1.5391 2.0273-1.5391 3.2383 0 0.12109 0.007812 0.25 0.023437 0.38281 0.10938 1.0508 0.66406 1.9453 1.5039 2.5703 0.80469 0.60156 1.8789 0.95313 3.0703 0.95313 0.20312 0 0.42188-0.011719 0.65234-0.035157 1.3945-0.14844 2.6562-0.74609 3.5742-1.5898 0.94922-0.87891 1.5391-2.0273 1.5391-3.2383v-23.82c0-0.36328-0.29688-0.66016-0.66016-0.66016-0.082031 0-0.16016 0.015624-0.23047 0.042968l-16.973 4.9922c-0.29688 0.0625-0.51953 0.32812-0.51953 0.64453v21.023c-0.066406-0.054687-0.13281-0.10937-0.20312-0.16016-0.80469-0.60156-1.8789-0.95312-3.0703-0.95312-0.20312 0-0.42188 0.011719-0.65234 0.035157-1.3945 0.14844-2.6562 0.74609-3.5742 1.5898-0.94922 0.87891-1.5391 2.0273-1.5391 3.2383 0 0.12109 0.007812 0.25 0.023438 0.38281 0.10937 1.0508 0.66406 1.9453 1.5039 2.5703zm28.113 2.5234c0.80469 0.60156 1.8789 0.95312 3.0703 0.95312 0.20312 0 0.42188-0.011718 0.65234-0.035156 1.3945-0.14844 2.6562-0.74609 3.5742-1.5898 0.94922-0.87891 1.5391-2.0273 1.5391-3.2383v-21.434c0.72656 0.94531 1.4375 1.4375 2.2617 2.0039 0.41797 0.28906 0.87109 0.60156 1.3555 1.0039 0.35547 0.29297 0.59766 0.69141 0.76172 1.125 0.22656 0.60156 0.30078 1.2656 0.30859 1.8398 0.003906 0.36328 0.30078 0.65625 0.66797 0.65234 0.36328-0.003906 0.65625-0.30078 0.65234-0.66797-0.007812-0.70312-0.10156-1.5273-0.39062-2.2891-0.23438-0.625-0.60156-1.2109-1.1523-1.6719-0.54297-0.44922-1.0117-0.77344-1.4492-1.0781-1.1133-0.76953-1.9961-1.3789-3.0664-3.5703-0.10156-0.23047-0.33594-0.39453-0.60547-0.39453-0.36328 0-0.66016 0.29688-0.66016 0.66016v21.023c-0.066406-0.054688-0.13281-0.10938-0.20312-0.16016-0.80469-0.60156-1.8789-0.95312-3.0703-0.95312-0.20312 0-0.42188 0.011719-0.65234 0.035156-1.3945 0.14844-2.6562 0.74609-3.5742 1.5898-0.94922 0.87891-1.5391 2.0273-1.5391 3.2383 0 0.12109 0.007813 0.25 0.023438 0.38281 0.10938 1.0508 0.66406 1.9453 1.5039 2.5703z" fill-rule="evenodd"/></svg>
