<svg xmlns="http://www.w3.org/2000/svg" version="1.1" viewBox="-5.0 -10.0 110.0 135.0">
 <path d="m26.684 55.398v27.801h47.062v-27.801c0-0.98047-0.80078-1.7695-1.7812-1.7695l-43.508-0.003906c-0.98047 0-1.7734 0.79297-1.7734 1.7734zm23.531 8.7578c2.668 0 4.8438 2.168 4.8438 4.8438s-2.1758 4.8438-4.8438 4.8438c-2.6758 0-4.8438-2.168-4.8438-4.8438s2.168-4.8438 4.8438-4.8438z"/>
 <path d="m12.676 84.762h75.074v7.668h-75.074z"/>
 <path d="m17.184 83.199h7.9375v-19.164c-1.7383 1.2461-8.8438 7.1211-7.9375 19.164z"/>
 <path d="m75.309 83.199h7.9375c0.90625-12.043-6.1992-17.918-7.9375-19.168z"/>
 <path d="m24.684 40.992c0 4.375 3.5625 7.9258 7.9258 7.9258h1.6055c0.25 1.082 0.625 2.1367 1.0938 3.1445h1.75c-1.1758-2.25-1.8008-4.7695-1.8008-7.332v-10.105h19.199c2.0195 0 3.875-1.1055 4.832-2.8867l0.29297-0.53125 0.25 0.46875c0.94922 1.8242 2.8125 2.9492 4.875 2.9492h1.0312v10.105c0 2.5508-0.625 5.082-1.793 7.332h1.7383c0.46875-1.0117 0.84375-2.0625 1.1055-3.1445h1.5938c4.3633 0 7.9258-3.5508 7.9258-7.9258 0-3.0625-1.75-5.7188-4.3008-7.043-0.003906 0-0.003906 0-0.007812-0.003907-0.86719-11.168-10.238-19.875-21.488-19.875-11.105 0-20.547 8.6602-21.488 19.711-0.003907 0.050781 0.011718 0.097656 0.015624 0.14453 0 0-0.003906 0-0.003906 0.003907-2.5781 1.3008-4.3516 3.9766-4.3516 7.0625zm25.832-25.359c10.18 0 18.691 7.6914 19.848 17.688-0.62891-0.16406-1.3008-0.25781-1.9805-0.25781h-1.125c-1.25-8.2266-8.3555-14.363-16.738-14.363-8.3555 0-15.488 6.2305-16.73 14.363h-1.1758c-0.66797 0-1.3281 0.082031-1.9453 0.24609 1.1602-9.957 9.75-17.676 19.848-17.676z"/>
 <path d="m45.645 45.355c0.42969 0 0.78125-0.35156 0.78125-0.78125v-0.73047c0-2.293-1.8633-4.1562-4.1562-4.1562s-4.1562 1.8633-4.1562 4.1562v0.73047c0 0.42969 0.35156 0.78125 0.78125 0.78125 0.42969 0 0.78125-0.35156 0.78125-0.78125v-0.73047c0-1.4297 1.1641-2.5938 2.5938-2.5938 1.4297 0 2.5938 1.1641 2.5938 2.5938v0.73047c0 0.42969 0.35156 0.78125 0.78125 0.78125z"/>
 <path d="m62.102 45.355c0.42969 0 0.78125-0.35156 0.78125-0.78125v-0.73047c0-2.293-1.8633-4.1562-4.1562-4.1562-2.293 0-4.1602 1.8633-4.1602 4.1562v0.73047c0 0.42969 0.35156 0.78125 0.78125 0.78125 0.42969 0 0.78125-0.35156 0.78125-0.78125v-0.73047c0-1.4297 1.1641-2.5938 2.5977-2.5938 1.4297 0 2.5938 1.1641 2.5938 2.5938v0.73047c0 0.42969 0.35156 0.78125 0.78125 0.78125z"/>
 <path d="m94.738 20.895c-0.20703 1.1133-0.83203 2.1758-1.7617 2.9805-1 0.85547-2.1992 1.2812-3.332 1.2812-1.1016 0-2.1445-0.40625-2.8516-1.2383-0.71875-0.83203-0.98828-1.9375-0.78125-3.125 0.19922-1.1133 0.83203-2.1758 1.7617-2.9805 1.6758-1.4375 3.9258-1.668 5.4492-0.66797v-7.8125l-9.75 2.293v10.02 0.019531c0.050782 0.25 0.082032 0.51953 0.082032 0.79297 0 0.25-0.019532 0.5-0.0625 0.75-0.20703 1.125-0.83203 2.1758-1.7617 2.9805-0.9375 0.80078-2.082 1.2617-3.2188 1.293h-0.11328c-1.1562 0-2.168-0.4375-2.8555-1.25-0.71875-0.83203-0.98828-1.9375-0.78125-3.1133 0.19922-1.125 0.83203-2.1875 1.7617-2.9883 0.9375-0.80078 2.082-1.2617 3.2188-1.2812 0.82422-0.03125 1.5508 0.16797 2.168 0.55078v-8.3867c0-0.36328 0.25-0.67578 0.60547-0.76172l11.309-2.6562c0.23047-0.050781 0.48047 0 0.66797 0.14453s0.29297 0.375 0.29297 0.61328l-0.003906 11.441c0 0.007812 0.011719 0.007812 0.011719 0.019531v0.011719c0.03125 0.34375 0.007812 0.70703-0.054688 1.0703z"/>
 <path d="m25.301 24.457c0 1.3242-0.63672 2.7305-1.8242 3.75-1 0.85547-2.1992 1.2812-3.3242 1.2812-1.1133 0-2.1562-0.41797-2.8633-1.2383-1.4258-1.6758-0.98828-4.418 0.98047-6.1055 1.6758-1.4492 3.9375-1.6758 5.457-0.67578v-7.8008l-9.7617 2.293v10c0.011718 0 0.011718 0.011718 0.011718 0.011718v0.042969c0.050782 0.25 0.074219 0.5 0.074219 0.76172 0 1.3242-0.63672 2.7305-1.8242 3.75-1 0.85547-2.1992 1.2812-3.332 1.2812-1.1055 0-2.1445-0.41797-2.8555-1.2383-1.4375-1.6758-0.98828-4.418 0.98047-6.1055 0.9375-0.80078 2.082-1.2617 3.2188-1.293 0.8125-0.019531 1.5625 0.17578 2.168 0.57422v-8.3945c0-0.36328 0.25-0.67578 0.60547-0.76172l11.312-2.668c0.23828-0.050781 0.48047 0 0.66797 0.14453 0.1875 0.15625 0.30078 0.375 0.30078 0.61328v11.48c0.007812 0.10156 0.007812 0.19531 0.007812 0.29688z"/></svg>
