<svg xmlns="http://www.w3.org/2000/svg" version="1.1" viewBox="-5.0 -10.0 110.0 135.0">
 <path d="m61.488 24.98h2.6484c1.0781 0 1.9688 0.87891 1.9688 1.9688v6.4883c0 1.0781-0.89062 1.9688-1.9688 1.9688h-2.6484c-1.0781 0-1.9688-0.89062-1.9688-1.9688v-6.4883c0-1.0781 0.89062-1.9688 1.9688-1.9688zm10.051 17.059c2.9805-1.7188 6.1719-1.7695 7.1289-0.10156 0.96094 1.6602-0.67969 4.4102-3.6484 6.1289-2.9805 1.7188-6.1719 1.7695-7.1289 0.10156-0.96875-1.668 0.66797-4.4062 3.6484-6.1289zm6.0312-3.3398v-13.699c0-0.60156 0.23828-1.1094 0.60938-1.4688 0.39062-0.39062 0.94141-0.62109 1.4883-0.62109 0.51953 0 1.0508 0.19141 1.4688 0.60938l3.1797 3.1797c0.42969 0.42969 0.42969 1.1289 0 1.5586-0.42969 0.42969-1.1289 0.42969-1.5586 0l-2.9688-2.9688v14.531c-0.62891-0.55859-1.3984-0.92187-2.2188-1.1211zm-35.422-21.371c7.1016 0 12.859 5.7617 12.859 12.859 0 7.1016-5.7617 12.859-12.859 12.859-7.0977 0.003906-12.859-5.7461-12.859-12.855 0-7.1133 5.7617-12.863 12.859-12.863zm-26.777 76.832h11.371v-23c0-0.60938 0.48828-1.1016 1.1016-1.1016 0.60938 0 1.1016 0.48828 1.1016 1.1016v23h26.41v-23c0-0.60938 0.48828-1.1016 1.1016-1.1016 0.60938 0 1.1016 0.48828 1.1016 1.1016v23h11.371v-26.801c0-10.559-9.3711-19.191-20.809-19.191l-11.941 0.003906c-11.449 0-20.809 8.6406-20.809 19.191zm46.188-71.379h2.2305c-0.92187-7.5508-6.5312-13.781-13.91-15.531v1.4102c0 0.28906-0.039062 0.57031-0.10156 0.83984 6.1914 1.6406 10.895 6.9102 11.781 13.281zm-27.02-13.281c-0.070312-0.26953-0.10156-0.55078-0.10156-0.83984l0.003906-1.4219c-7.3906 1.75-12.988 7.9805-13.91 15.531h2.2305c0.87891-6.3594 5.5781-11.629 11.777-13.27zm-14.367 15.48h2.6484c1.0781 0 1.9688 0.87891 1.9688 1.9688v6.4883c0 1.0781-0.89062 1.9688-1.9688 1.9688h-2.6484c-1.0781 0-1.9688-0.89062-1.9688-1.9688v-6.4883c-0.003906-1.0781 0.88672-1.9688 1.9688-1.9688zm17.707-19.141h8.5391c0.67969 0 1.2383 0.55859 1.2383 1.2383v1.5781c0 0.67969-0.55859 1.2383-1.2383 1.2383h-8.5391c-0.67969 0-1.2383-0.55859-1.2383-1.2383v-1.5859c0.007813-0.67969 0.55859-1.2305 1.2383-1.2305z" fill-rule="evenodd"/></svg>
