<svg xmlns="http://www.w3.org/2000/svg" version="1.1" viewBox="-5.0 -10.0 110.0 135.0">
 <path d="m63.75 52.125c-1.1719 2.3477-4.0273 3.2969-6.375 2.125l-2.625-1.3125v16.062c0 5.2383-4.2617 9.5-9.5 9.5s-9.5-4.2617-9.5-9.5 4.2617-9.5 9.5-9.5v-14.25c0-1.6445 0.85547-3.1758 2.2539-4.0391 1.4023-0.86328 3.1484-0.94141 4.6211-0.21094l9.5 4.75c2.3477 1.1758 3.2969 4.0273 2.125 6.375zm24.25-21.125v57c0 5.2383-4.2617 9.5-9.5 9.5h-57c-5.2383 0-9.5-4.2617-9.5-9.5v-58.324c0-4.0977 2.6094-7.7188 6.4961-9.0117l53.75-17.922c0.49219-0.16016 1-0.24219 1.5039-0.24219 0.98438 0 1.9609 0.30859 2.7773 0.89453 1.2383 0.89453 1.9727 2.3281 1.9727 3.8555v14.25c5.2383 0 9.5 4.2617 9.5 9.5zm-57-9.5h42.75v-14.25zm52.25 9.5c0-2.6211-2.125-4.75-4.75-4.75h-57c-2.6211 0-4.75 2.125-4.75 4.75v57c0 2.6211 2.125 4.75 4.75 4.75h57c2.6211 0 4.75-2.1289 4.75-4.75z"/></svg>
