<svg xmlns="http://www.w3.org/2000/svg" version="1.1" viewBox="-5.0 -10.0 110.0 135.0">
 <path d="m74.859 21.77v-0.007812h0.011719v-11.762h-0.011719l-35.031 8.9609-10.977 2.8008-0.011718 0.007812z"/>
 <path d="m55.699 47.129-9.2695 1.8203v2.9023l9.2695-1.8008z"/>
 <path d="m40.328 67.77c0.12891 0.10156 0.51172 0.30078 0.98828 0.12891l1.1289-0.39844c0.42188-0.14844 0.71875-0.57031 0.71875-1.0195 0-0.51172-0.32812-0.78906-0.46875-0.89062-0.10156-0.070313-0.32812-0.19922-0.62109-0.19922-0.10938 0-0.23828 0.019531-0.37109 0.070313l-1.1289 0.39844c-0.42188 0.14844-0.71875 0.57031-0.71875 1.0195 0 0.51172 0.32812 0.78906 0.46875 0.89062z"/>
 <path d="m55.25 63.148c-0.10156-0.078126-0.32812-0.21094-0.62109-0.21094-0.12109 0-0.23828 0.019531-0.37109 0.070312l-1.1289 0.41016c-0.42969 0.14844-0.71875 0.57031-0.71875 1.0195 0 0.51172 0.32812 0.78125 0.46094 0.87891 0.14062 0.10156 0.51172 0.30078 1 0.14062l1.1211-0.41016c0.42969-0.14844 0.71875-0.57031 0.71875-1.0195 0-0.5-0.32031-0.78125-0.46094-0.87891z"/>
 <path d="m17.512 90h64.969v-64.969h-64.969zm21.969-27.211 1.1289-0.39844c0.82812-0.30078 1.7188-0.33984 2.5586-0.12109v-13.66c0-1.3594 0.96875-2.5391 2.3203-2.8086l10.078-1.9609c0.83984-0.17188 1.7109 0.050781 2.3594 0.60156 0.66016 0.53906 1.0391 1.3516 1.0391 2.2109v17.379c0 1.8281-1.1484 3.4805-2.8711 4.1016l-1.1289 0.39844c-0.48047 0.17188-0.98047 0.25-1.4688 0.25-0.87891 0-1.7617-0.26172-2.5-0.78125-1.1602-0.82031-1.8516-2.1406-1.8516-3.5586 0-1.8281 1.1484-3.4688 2.8711-4.0898l1.1289-0.41016c0.83984-0.28906 1.7305-0.32812 2.5586-0.12109v-6.4492l-9.2812 1.8008v11.191h-0.011719s0.011719 0.070313 0.011719 0.10938c0 1.8281-1.1602 3.4688-2.8789 4.0898l-1.1211 0.39844c-0.48047 0.17187-0.98047 0.26172-1.4805 0.26172-0.87891 0-1.7617-0.26953-2.5-0.78906-1.1484-0.80078-1.8516-2.1406-1.8516-3.5586 0-1.8281 1.1602-3.4688 2.8789-4.0898z"/></svg>
