<svg xmlns="http://www.w3.org/2000/svg" xmlns:xlink="http://www.w3.org/1999/xlink" version="1.1" x="0px" y="0px" viewBox="0 0 60 75" style="enable-background:new 0 0 60 60;" xml:space="preserve"><g><g><path d="M55,1.8h-0.2l-34.1,7c-1.5,0.1-2.7,1.4-2.7,3v9v2v17.5c-1.7-1.3-3.7-2-6-2c-5.5,0-10,4.5-10,10s4.5,10,10,10s10-4.5,10-10    c0-0.2,0-0.3,0-0.5l0,0V25.6L54,19v15.3c-1.7-1.3-3.7-2-6-2c-5.5,0-10,4.5-10,10s4.5,10,10,10s10-4.5,10-10c0-0.2,0-0.3,0-0.5l0,0    v-26v-1v-10C58,3.1,56.7,1.8,55,1.8z"/></g></g></svg>