<svg xmlns="http://www.w3.org/2000/svg" version="1.1" viewBox="-5.0 -10.0 110.0 135.0">
 <path d="m90.406 33.012h-1.1445c-2.5-0.054688-4.7148-1.6094-5.6172-3.9375v-0.10547c-1.0312-2.2852-0.57031-4.9727 1.168-6.7812l0.80078-0.8125c0.10156-0.09375 0.16016-0.22656 0.16016-0.36328 0-0.14062-0.058594-0.26953-0.16016-0.36719l-7.4883-7.4688c-0.20703-0.19922-0.53516-0.19922-0.73828 0l-0.58594 0.58594c-1.8398 1.8398-4.6094 2.3867-7.0078 1.3828l-0.36328-0.15625h-0.003907c-2.2266-0.91016-3.6758-3.082-3.6641-5.4883v-1.168c0-0.13672-0.054688-0.26953-0.15234-0.36719s-0.23047-0.15234-0.37109-0.15234h-10.57c-0.28125 0.011719-0.5 0.24219-0.5 0.51953v1.1484c0.003906 2.4023-1.4453 4.5742-3.668 5.4883l-0.66797 0.28125c-2.2227 0.93359-4.7891 0.42188-6.4883-1.293l-0.8125-0.80078c-0.20312-0.19922-0.52734-0.19922-0.73047 0l-7.4688 7.4688c-0.097656 0.09375-0.15625 0.22656-0.15625 0.36328 0 0.14062 0.058594 0.26953 0.15625 0.36719l0.80078 0.8125h0.003907c1.7344 1.8086 2.1953 4.4922 1.1641 6.7812v0.10547-0.003907c-0.89453 2.3281-3.1094 3.8867-5.6016 3.9375h-1.1484c-0.28516 0-0.51953 0.23438-0.51953 0.52344v10.582c0 0.13672 0.054688 0.26953 0.15234 0.36719 0.097656 0.097656 0.23047 0.15234 0.36719 0.15234h1.1484c2.4922 0.054688 4.707 1.6094 5.6016 3.9375v0.10547c1.0312 2.2852 0.57031 4.9727-1.1641 6.7812l-0.80078 0.8125h-0.003907c-0.097656 0.09375-0.15625 0.22656-0.15625 0.36328 0 0.14062 0.058594 0.26953 0.15625 0.36719l7.4688 7.4688c0.097657 0.097656 0.22656 0.15625 0.36719 0.15625 0.13672 0 0.26953-0.058594 0.36328-0.15625l0.8125-0.80078v-0.003907c1.8125-1.7188 4.4844-2.1719 6.7617-1.1445h0.10547-0.003907c2.3438 0.89062 3.9102 3.1172 3.9609 5.625v1.1445c0 0.14062 0.054687 0.27344 0.15234 0.37109 0.097657 0.097656 0.23047 0.15234 0.36719 0.15234h10.543c0.13672 0 0.26953-0.054688 0.36719-0.15234s0.15234-0.23047 0.15234-0.37109v-1.1445c0.042969-2.5039 1.6016-4.7305 3.9375-5.625h0.10547c2.2852-1.0312 4.9688-0.57031 6.7812 1.168l0.80078 0.80078c0.097656 0.097656 0.23047 0.15234 0.37109 0.15234 0.13672 0 0.26953-0.054688 0.36719-0.15234l7.4688-7.4688c0.10156-0.09375 0.16016-0.22656 0.16016-0.36328 0-0.14062-0.058594-0.26953-0.16016-0.36719l-0.80078-0.8125c-1.7344-1.8086-2.1992-4.4922-1.1758-6.7812v-0.10547 0.003907c0.89844-2.332 3.1172-3.8867 5.6133-3.9375h1.1445c0.14062 0 0.27344-0.054688 0.37109-0.15234s0.15234-0.23047 0.15234-0.37109v-10.582c0-0.27344-0.21094-0.5-0.48047-0.51953zm-0.51953 10.562h-0.625c-2.9141 0.14453-5.4844 1.9531-6.5977 4.6523-1.1133 2.6953-0.57422 5.793 1.3867 7.9492l0.4375 0.4375-6.7305 6.7305-0.4375-0.4375h0.003907c-2.1602-1.9609-5.2578-2.5039-7.9531-1.3867-2.6953 1.1133-4.5078 3.6797-4.6523 6.5938v0.63672h-9.5117v-0.625c-0.14453-2.9141-1.9531-5.4844-4.6523-6.5977-2.6953-1.1133-5.793-0.57422-7.9492 1.3906l-0.4375 0.4375-6.75-6.7422 0.4375-0.4375c2.0273-2.1094 2.582-5.2383 1.3945-7.9141v-0.10547c-1.0586-2.7188-3.6562-4.5273-6.5742-4.582h-0.625v-9.5234h0.625c2.9531-0.0625 5.5664-1.9141 6.6055-4.6758 1.1953-2.6797 0.64453-5.8125-1.3867-7.9258l-0.47656-0.4375 6.7305-6.7305 0.4375 0.4375h-0.003907c2.0039 2.0078 5.0195 2.6055 7.6367 1.5117l0.65625-0.26953v-0.003907c2.6211-1.0742 4.332-3.625 4.332-6.457v-0.625h9.5195v0.625h0.003907c-0.007813 2.8242 1.6914 5.375 4.3008 6.457l0.375 0.14453v0.003907c2.7891 1.168 6.0117 0.52734 8.1445-1.6172l0.21875-0.20703 6.7305 6.7305-0.4375 0.4375c-2.0391 2.1484-2.5742 5.3203-1.3555 8.0195 1.0586 2.7188 3.6562 4.5312 6.5742 4.582h0.625zm-80.812 22.918v-10.586c0-0.28906 0.23047-0.51953 0.51953-0.51953h1.1445c2.5-0.054688 4.7148-1.6094 5.6172-3.9375v-0.10547c1.0234-2.2891 0.55469-4.9688-1.1797-6.7812l-0.75781-0.8125c-0.10156-0.09375-0.16016-0.22656-0.16016-0.36328 0-0.14062 0.058594-0.26953 0.16016-0.36719l7.457-7.4688c0.097656-0.097656 0.23047-0.15234 0.37109-0.15234 0.13672 0 0.26953 0.054687 0.36719 0.15234l0.80469 0.80469c0.58984 0.58984 1.3008 1.0547 2.082 1.3516 0.23438 0.12109 0.34375 0.40234 0.25 0.64844-0.09375 0.25-0.35938 0.38672-0.61328 0.32031-0.91797-0.35156-1.7539-0.89062-2.4492-1.582l-0.4375-0.4375-6.7305 6.7305 0.4375 0.4375c2.0352 2.1094 2.5859 5.2461 1.3984 7.9258-1.0586 2.7539-3.668 4.5977-6.6172 4.6758h-0.625v9.5195h0.625v0.003907c2.918 0.050781 5.5156 1.8633 6.5742 4.582 1.2188 2.6992 0.68359 5.8711-1.3555 8.0195l-0.4375 0.4375 6.7305 6.7305 0.4375-0.4375c2.1133-2.0312 5.25-2.5781 7.9258-1.3867 2.7656 1.0391 4.6172 3.6562 4.6797 6.6055v0.625h9.5v-0.625c0.14453-2.9141 1.9531-5.4844 4.6523-6.5977 2.6953-1.1133 5.793-0.57422 7.9492 1.3906l0.4375 0.4375 6.75-6.7422-0.4375-0.4375c-1.043-1.0547-1.7188-2.4141-1.9258-3.8828-0.019531-0.13672 0.015625-0.27344 0.097656-0.38672 0.082032-0.10938 0.20312-0.17969 0.33984-0.19922 0.28516-0.035156 0.54688 0.15625 0.59375 0.4375 0.16797 1.25 0.74609 2.4062 1.6367 3.293l0.80078 0.8125c0.10156 0.09375 0.15625 0.22656 0.15625 0.36328 0 0.14062-0.054688 0.26953-0.15625 0.36719l-7.4688 7.4688c-0.09375 0.097656-0.22656 0.15625-0.36328 0.15625-0.14062 0-0.26953-0.058594-0.36719-0.15625l-0.8125-0.80078v-0.003907c-1.8086-1.7344-4.4922-2.1953-6.7812-1.1641h-0.10547 0.003907c-2.3516 0.89453-3.918 3.1328-3.9609 5.6445v1.168c0 0.13672-0.054687 0.26953-0.15234 0.36719-0.097657 0.097656-0.23047 0.15234-0.36719 0.15234h-10.543c-0.28516 0-0.51953-0.23438-0.51953-0.51953v-1.1484c-0.046875-2.5-1.6016-4.7266-3.9375-5.625h-0.10547c-2.2852-1.0312-4.9688-0.57031-6.7812 1.168l-0.80078 0.80078c-0.097656 0.10156-0.23047 0.15625-0.37109 0.15625-0.13672 0-0.26953-0.054687-0.36719-0.15625l-7.4688-7.4688c-0.10156-0.09375-0.16016-0.22656-0.16016-0.36328s0.058594-0.26953 0.16016-0.36328l0.80078-0.8125c1.7383-1.8125 2.1992-4.4961 1.168-6.7812v-0.10547c-0.90234-2.3281-3.1172-3.8867-5.6172-3.9375h-1.1758c-0.14453 0-0.28516-0.058594-0.38281-0.16797-0.10156-0.10547-0.14844-0.25-0.13672-0.39453zm30.977 12.832c5.1719-0.003907 10.098-2.207 13.543-6.0625 0.097656-0.10156 0.23047-0.15625 0.37109-0.15625 0.13672 0 0.26953 0.054687 0.36719 0.15625 0.19922 0.20312 0.19922 0.52344 0 0.72656-4.5938 5.0859-11.551 7.332-18.25 5.8945s-12.125-6.3398-14.23-12.859c-2.1055-6.5195-0.57031-13.668 4.0234-18.754 0.19531-0.19141 0.51172-0.19922 0.71484-0.011719 0.20312 0.18359 0.23047 0.49609 0.054687 0.71094-3.1758 3.4844-4.8711 8.0664-4.7227 12.777 0.14453 4.7109 2.1172 9.1836 5.5039 12.465 3.3828 3.2773 7.9141 5.1133 12.625 5.1133zm-12.883-18.137c-0.003907 5.5391 3.5352 10.457 8.7852 12.219 5.2539 1.7617 11.043-0.027344 14.379-4.4492 0.17578-0.23047 0.5-0.27734 0.73047-0.10156 0.23047 0.17188 0.27734 0.49609 0.10547 0.72656-2.3945 3.2227-6.0625 5.2578-10.066 5.5781-4 0.32422-7.9492-1.0977-10.824-3.8984-2.8789-2.7969-4.4102-6.7031-4.1992-10.715 0.21094-4.0078 2.1406-7.7305 5.2969-10.215 0.10938-0.085937 0.24609-0.125 0.38281-0.11328 0.13672 0.015625 0.26563 0.085938 0.35156 0.19141 0.17969 0.22656 0.14453 0.55469-0.078125 0.73438-3.0664 2.4336-4.8555 6.1289-4.8633 10.043zm43.582-39.312-17.105 3.418c-1.2773 0.26172-2.1953 1.3828-2.1953 2.6875v15.426c-0.45312-0.10547-0.91406-0.15625-1.375-0.15625-2.5273 0-4.8086 1.5234-5.7773 3.8594-0.96484 2.3359-0.42969 5.0234 1.3555 6.8086 1.7891 1.7891 4.4766 2.3242 6.8125 1.3555 2.3359-0.96484 3.8594-3.2461 3.8594-5.7734 0.003906-0.070312 0.003906-0.14062 0-0.20703 0.003906-0.03125 0.003906-0.0625 0-0.09375v-18.137l12.676-2.5508v10.418-0.003907c-2.5898-0.53516-5.2344 0.61328-6.6094 2.8711s-1.1797 5.1367 0.48438 7.1875c1.668 2.0547 4.4453 2.8359 6.9375 1.957 2.4922-0.88281 4.1602-3.2344 4.168-5.8789v-20.52c-0.023438-0.81641-0.40234-1.5781-1.043-2.0859-0.60938-0.50391-1.4062-0.71484-2.1875-0.58203zm2.2305 23.23c0 2.1055-1.2695 4.0039-3.2148 4.8125-1.9492 0.80469-4.1875 0.35938-5.6758-1.1328-1.4922-1.4883-1.9375-3.7266-1.1328-5.6758 0.80859-1.9453 2.707-3.2148 4.8125-3.2148 0.56641-0.003906 1.1328 0.089844 1.668 0.27344 0.16016 0.046875 0.33203 0.019531 0.46875-0.074219 0.13672-0.097656 0.21875-0.25781 0.21875-0.42578v-11.793c0-0.15625-0.074219-0.30469-0.19922-0.39453-0.11328-0.10547-0.27344-0.14844-0.42578-0.11719l-13.762 2.7617c-0.24219 0.046875-0.41797 0.26172-0.41406 0.51172v18.562c-0.007813 0.046875-0.007813 0.097656 0 0.14453v0.1875c0 2.1055-1.2695 4.0039-3.2148 4.8125-1.9492 0.80469-4.1875 0.35938-5.6758-1.1289-1.4922-1.4922-1.9375-3.7305-1.1328-5.6758 0.80859-1.9453 2.707-3.2148 4.8125-3.2148 0.58984-0.003907 1.1758 0.097656 1.7305 0.28906 0.15625 0.058594 0.33203 0.035157 0.46875-0.0625 0.13672-0.097656 0.21484-0.25781 0.21875-0.42578v-16.145c0.007812-0.80859 0.57422-1.5 1.3633-1.668l17.055-3.3945c0.50391-0.11328 1.0352 0.007812 1.4414 0.33203s0.64062 0.8125 0.64062 1.332z"/></svg>
