<svg xmlns="http://www.w3.org/2000/svg" version="1.1" viewBox="-5.0 -10.0 110.0 135.0">
 <path d="m20.906 59.934c2.4727 0 4.75 0.85156 6.5508 2.2812v-6.6094c-2.6133-0.26172-5.168-0.73047-7.6836-1.4062-3.0273-0.8125-6-1.9297-8.9297-3.3516l-1.7969-0.86719 1.7344-3.5938 1.7969 0.86719c2.6953 1.3086 5.4336 2.3359 8.2305 3.0859 2.1797 0.58594 4.3945 1.0039 6.6484 1.25v-5.5703l-0.019531-0.0625 0.019531-0.007812v-10.641l33.777-11.043v19.781c0.60547-0.17578 1.1875-0.33203 1.7695-0.46875 0.89453-0.21094 1.793-0.39453 2.7695-0.55859 0.40234-1.3828 1.1484-2.6172 2.1406-3.6094 1.5273-1.5273 3.6406-2.4727 5.9688-2.4727 1.6289 0 3.1484 0.46094 4.4414 1.2617v-14.461l17.809-4.7695v11.016l-13.805 3.6992v9.1094c2.2305 0.32812 4.4062 0.80859 6.5508 1.4414 2.6172 0.77344 3.6953 1.0859 6.25 2.3242l1.7969 0.86719-1.7344 3.5938-1.7969-0.86719c-2.3672-1.1523-3.2461-1.3828-5.6406-2.0898-1.8125-0.53516-3.6562-0.94922-5.5469-1.25-0.30078 1.7539-1.1445 3.3281-2.3516 4.5352-1.5273 1.5273-3.6406 2.4727-5.9688 2.4727s-4.4414-0.94531-5.9688-2.4727c-1.1406-1.1406-1.9531-2.6016-2.2969-4.2383-0.58203 0.10938-1.1406 0.23047-1.6914 0.35938-0.87891 0.21094-1.7461 0.45703-2.6875 0.75781v8.4766c4.6953-0.76562 9.375-0.83203 13.992-0.21875 5.2617 0.69531 10.43 2.2695 15.418 4.6953l1.7969 0.86719-1.7344 3.5938-1.7969-0.86719c-4.6172-2.2422-9.375-3.6953-14.199-4.3359-4.4453-0.58984-8.957-0.49219-13.477 0.30859v4.6094c0 4.043-0.75781 6.3438-3.0273 8.6133-1.9102 1.9102-4.5469 3.0898-7.4609 3.0898-2.9102 0-5.5508-1.1836-7.4609-3.0898-1.6133-1.6133-2.7109-3.75-3.0078-6.1328-1.457 0.44531-2.8477 0.8125-4.2656 1.1016-1.4727 0.30078-2.9609 0.51562-4.5547 0.65625 0 3.2617-0.625 5.8906-3.0898 8.3555-1.9102 1.9102-4.5469 3.0898-7.4609 3.0898-2.9102 0-5.5508-1.1836-7.4609-3.0898-1.9102-1.9102-3.0898-4.5469-3.0898-7.4609 0-1.0859 0.16406-2.1367 0.46875-3.1211-0.77344-0.26953-1.5156-0.55859-2.2422-0.87109-1.2148-0.51562-2.4023-1.0898-3.707-1.7227l-1.7969-0.86719 1.7344-3.5938 1.7969 0.86719c1.2539 0.60937 2.3945 1.1602 3.5352 1.6445 0.84375 0.35938 1.6953 0.6875 2.6016 0.97656 0.22266-0.26953 0.45312-0.52734 0.69922-0.76953 1.9102-1.9102 4.5469-3.0898 7.4609-3.0898zm19.715 3.5938c0.50391-1.7148 1.4336-3.25 2.6641-4.4805 1.9102-1.9102 4.5469-3.0898 7.4609-3.0898 2.4453 0 4.6992 0.83203 6.4883 2.2305v-17.766l-25.773 8.4258v16.738c1.3125-0.125 2.543-0.30859 3.7578-0.55859 1.7227-0.35156 3.4609-0.84766 5.4062-1.5zm41.703-36.727v2.7461l9.8047-2.625v-2.7461zm-5.3008 15.434c-0.80078-0.80078-1.9141-1.3008-3.1406-1.3008-1.2266 0-2.3398 0.49609-3.1406 1.3008-0.80078 0.80078-1.3008 1.9141-1.3008 3.1406s0.49609 2.3398 1.3008 3.1406c0.80078 0.80078 1.9141 1.3008 3.1406 1.3008 1.2266 0 2.3398-0.49609 3.1406-1.3008 0.78906-0.78906 1.2852-1.8789 1.3008-3.082v-0.11719c-0.015625-1.2031-0.51172-2.293-1.3008-3.082zm-19.789-6.0195v-6.4375l-25.773 8.4258v6.4453c8.5938-2.8047 17.18-5.6289 25.773-8.4297zm-1.8555 25.66c-1.1836-1.1836-2.8242-1.918-4.6328-1.918s-3.4492 0.73438-4.6328 1.918c-1.1836 1.1836-1.918 2.8242-1.918 4.6328 0 1.8086 0.73438 3.4492 1.918 4.6328 1.1836 1.1836 2.8242 1.918 4.6328 1.918s3.4492-0.73438 4.6328-1.918 1.918-2.8242 1.918-4.6328c0-1.8086-0.73438-3.4492-1.918-4.6328zm-29.836 3.9766c-1.1836-1.1836-2.8242-1.918-4.6328-1.918s-3.4492 0.73438-4.6328 1.918c-1.1836 1.1836-1.918 2.8242-1.918 4.6328s0.73438 3.4492 1.918 4.6328c1.1836 1.1836 2.8242 1.918 4.6328 1.918s3.4492-0.73438 4.6328-1.918c1.1836-1.1836 1.918-2.8242 1.918-4.6328s-0.73438-3.4492-1.918-4.6328z"/></svg>