<svg xmlns="http://www.w3.org/2000/svg" version="1.1" viewBox="-5.0 -10.0 110.0 135.0">
 <path d="m56.031 52.258c-2.0977-1.4766-3.2891-2.0508-4.4375-4.1758-0.066406-0.13672-0.12109-0.27344-0.14844-0.42188-0.25391-1.3594-2.0547-1.2109-2.0078 0.27344v17.473c-0.09375-0.039062-0.16406-0.082031-0.24609-0.10938-2.0078-0.99609-3.9844-0.94141-5.8984 0.23047-1.918 1.1914-2.4531 3.6094-0.875 5.3633 2.7188 3.0508 9.0078 1.7148 9.0078-2.4688v-11.438c0.44922 0.23047 0.875 0.41016 1.2695 0.64062 1.8789 1.1406 2.9648 2.8906 3.3047 4.6836 0.035156 0.16797-0.074219 0.24609-0.38281 0.71094-0.77344 1.0625 0.69531 2.1992 1.543 1.2266 1.3164-1.5469 2.2773-4.082 2.2109-6.457-0.050782-1.8789-1.0117-3.8906-3.3398-5.5312z"/>
 <path d="m81.832 44.75v-0.074219c0-1.043-0.84766-1.8945-1.8945-1.8945h-0.45312c-0.63281-4.6211-2.1328-9.0039-4.375-12.703-11.508-19.203-37.211-19.426-48.914 0-2.2305 3.6992-3.7305 8.082-4.375 12.699h-0.89062c-1.0469 0-1.8984 0.85156-1.8984 1.8984v0.074219c-5.0391 0.55078-8.9023 4.7812-8.9023 9.918 0 5.1328 3.8633 9.3672 8.9023 9.918v0.082031c0 1.0469 0.85156 1.8984 1.8984 1.8984h4.3438c0.58203 0 1.0977-0.26953 1.4492-0.68359 2.7773 10.641 12.441 18.527 23.934 18.527 11.379 0 20.961-7.7188 23.859-18.188 0.30859 0.21484 0.67969 0.34375 1.082 0.34375h4.3477c1.043 0 1.8945-0.84766 1.8945-1.8945v-0.085937c5.0391-0.54688 8.9023-4.7773 8.9023-9.918-0.007813-5.1406-3.8711-9.3711-8.9102-9.918zm-31.176 36.812c-12.086 0-21.918-9.8398-21.918-21.934s9.832-21.934 21.918-21.934c12.094 0 21.934 9.8398 21.934 21.934-0.003906 12.098-9.8438 21.934-21.934 21.934zm23.043-36.887v5.9258c-3.6211-9.2031-12.574-15.742-23.047-15.742-10.926 0-20.203 7.125-23.484 16.965v-7.1484c0-0.94922-0.69922-1.7266-1.6094-1.8711 0.85938-3.7305 2.3125-7.2305 4.2695-10.152 13.684-19.953 40.605-13.078 45.902 10.129h-0.13672c-1.043 0-1.8945 0.84766-1.8945 1.8945zm-62.234 9.9922c0-4.4023 3.2695-8.043 7.5664-8.5859v17.172c-4.293-0.54297-7.5664-4.1875-7.5664-8.5859zm14.375 10c0 0.3125-0.25391 0.56641-0.56641 0.56641h-4.3438c-0.3125 0-0.56641-0.25391-0.56641-0.56641 0.003907-4.207 0.003907 2.332 0-19.992 0-0.3125 0.25391-0.56641 0.56641-0.56641 1.4805 0.003906 3.5273 0.003906 4.3438 0 0.3125 0 0.56641 0.25391 0.56641 0.56641zm54.66 0.003906c0 0.30859-0.25 0.55859-0.55859 0.55859h-4.3477c-0.30859 0-0.55859-0.25-0.55859-0.55859v-0.76172c0.51953-2.9688 0.53516-5.5078 0-8.5586v-10.68c0-0.3125 0.24609-0.55859 0.55859-0.55859h4.3477c0.3125 0 0.55859 0.24609 0.55859 0.55859v20zm1.332-1.418v-17.172c4.2969 0.53516 7.5703 4.1836 7.5703 8.5859 0 4.4023-3.2734 8.0508-7.5703 8.5859z"/>
 <path d="m84.961 34.734-1.7422 3.168c-0.24609 0.44531 0.082031 0.98828 0.58594 0.98828 0.23437 0 0.46484-0.125 0.58594-0.34375l1.7422-3.168c0.17578-0.32422 0.058594-0.72656-0.26562-0.90625-0.32422-0.17969-0.73047-0.0625-0.90625 0.26172z"/>
 <path d="m87.887 40.984 2.7734-2.5234c0.27344-0.25 0.29297-0.66797 0.042969-0.94141-0.24609-0.27344-0.66797-0.28906-0.94141-0.042969l-2.7734 2.5234c-0.27344 0.24609-0.29297 0.66797-0.042969 0.94141 0.25 0.27344 0.67188 0.28906 0.94141 0.042969z"/>
 <path d="m92.402 42.285-3.3164 1.4336c-0.66016 0.28516-0.45703 1.2773 0.26562 1.2773 0.25 0 0.125-0.015625 3.582-1.4883 0.33984-0.14453 0.49219-0.53906 0.34766-0.875-0.14844-0.33594-0.54297-0.49219-0.87891-0.34766z"/>
 <path d="m14.137 35.09c-0.32422 0.17578-0.44141 0.58203-0.26172 0.90625l1.7422 3.168c0.17578 0.32422 0.58203 0.44141 0.90625 0.26172 0.32422-0.17578 0.44141-0.58203 0.26172-0.90625l-1.7422-3.168c-0.17969-0.32031-0.58594-0.4375-0.90625-0.26172z"/>
 <path d="m10.234 38.094c-0.27344-0.24609-0.69141-0.22656-0.94141 0.042969-0.25 0.27344-0.22656 0.69531 0.042969 0.94141l2.7734 2.5234c0.26953 0.24609 0.69141 0.23047 0.94141-0.042968 0.25-0.27344 0.22656-0.69141-0.042969-0.94141z"/>
 <path d="m11.262 45.215c0.14453-0.33984-0.007813-0.73047-0.34766-0.875l-3.3164-1.4336c-0.33984-0.14844-0.73047 0.007812-0.875 0.34766-0.14453 0.33984 0.007813 0.73047 0.34766 0.875l3.3164 1.4336c0.33203 0.14453 0.72656-0.003906 0.875-0.34766z"/></svg>