<svg xmlns="http://www.w3.org/2000/svg" version="1.1" viewBox="-5.0 -10.0 110.0 135.0">
 <path d="m60.512 4.4609c-2.1016 0-3.5 1.3984-3.5 3.5v35.031c0 3.8516-3.1484 7.0117-7.0117 7.0117-3.8594 0-7.0117-3.1484-7.0117-7.0117v-35.031c0-2.1016-1.3984-3.5-3.5-3.5-2.1016 0-3.5 1.3984-3.5 3.5v35.031c0 6.6602 4.5508 11.91 10.512 13.66v25.922c-2.1016 1.0508-3.5 3.5-3.5 5.9609 0 3.8516 3.1484 7.0117 7.0117 7.0117 3.8594 0 7.0117-3.1484 7.0117-7.0117 0-2.4492-1.3984-4.8984-3.5-5.9609v-25.922c5.9609-1.3984 10.512-7.0117 10.512-13.66l-0.003906-35.031c0-2.1016-1.3984-3.5-3.5-3.5z"/>
 <path d="m74.52 14.969c-2.1016 0-3.5 1.3984-3.5 3.5v14.012c0 2.1016 1.3984 3.5 3.5 3.5 2.1016 0 3.5-1.3984 3.5-3.5v-14.012c0-2.1016-1.3984-3.5-3.5-3.5z"/>
 <path d="m88.531 4.4609c-2.1016 0-3.5 1.3984-3.5 3.5v35.031c0 2.1016 1.3984 3.5 3.5 3.5s3.5-1.3984 3.5-3.5v-35.031c0-2.1016-1.3984-3.5-3.5-3.5z"/>
 <path d="m25.48 14.969c-2.1016 0-3.5 1.3984-3.5 3.5v14.012c0 2.1016 1.3984 3.5 3.5 3.5 2.1016 0 3.5-1.3984 3.5-3.5v-14.012c0-2.1016-1.3984-3.5-3.5-3.5z"/>
 <path d="m11.469 4.4609c-2.1016 0-3.5 1.3984-3.5 3.5v35.031c0 2.1016 1.3984 3.5 3.5 3.5s3.5-1.3984 3.5-3.5v-35.031c0-2.1016-1.3984-3.5-3.5-3.5z"/></svg>