<svg xmlns="http://www.w3.org/2000/svg" version="1.1" viewBox="-5.0 -10.0 110.0 135.0">
 <path d="m18.422 24.641c-0.64062 0.17969-1.1211 0.76172-1.1211 1.4492v62.41c0 0.82812 0.67969 1.4883 1.4883 1.4883h62.422c0.82031 0 1.4883-0.67188 1.4883-1.4883v-62.41c0-0.82812-0.67969-1.4883-1.4883-1.4883h-5.4805v-14.602zm54.328-10.801v10.762h-42.102l42.09-10.762zm6.9688 13.75v59.43h-59.438v-59.43h59.441z"/>
 <path d="m39.441 69.121c0.67969 0.48047 1.4805 0.73047 2.2891 0.73047 0.44922 0 0.91016-0.078124 1.3398-0.23828l1.0312-0.37109c1.5703-0.57031 2.6289-2.0703 2.6289-3.7383v-10.328l8.4883-1.6484v5.8984c-0.76953-0.19141-1.5781-0.16016-2.3398 0.10938l-1.0312 0.37891c-1.5703 0.57031-2.6289 2.0703-2.6289 3.7383 0 1.2891 0.62891 2.5117 1.6797 3.25 0.69141 0.48047 1.4805 0.71875 2.2891 0.71875 0.46094 0 0.92188-0.070313 1.3516-0.23047l1.0312-0.37109c1.5703-0.57031 2.6289-2.0781 2.6289-3.75v-0.10156-15.801c0-0.78906-0.35156-1.5195-0.94922-2.0195-0.60156-0.5-1.3906-0.71094-2.1719-0.55078l-9.2188 1.7891c-1.2188 0.23828-2.1211 1.3203-2.1211 2.5703v12.488c-0.76172-0.19922-1.5703-0.17188-2.3398 0.10938l-1.0312 0.37109c-1.5703 0.57031-2.6289 2.0703-2.6289 3.7383 0 1.2891 0.62891 2.5195 1.6914 3.25zm15.129-4.9219-1.0312 0.37891c-0.44141 0.14844-0.78125-0.039063-0.91016-0.12891-0.12891-0.089844-0.42188-0.33984-0.42188-0.80859 0-0.42188 0.26172-0.80078 0.66016-0.92969l1.0195-0.37891c0.12109-0.039062 0.23828-0.058593 0.33984-0.058593 0.28125 0 0.48047 0.12109 0.57813 0.19141 0.12109 0.089844 0.42187 0.35156 0.42187 0.80859 0 0.42187-0.26953 0.80078-0.66016 0.94141zm-7.8398-14.73 8.4883-1.6602v2.6719l-8.4883 1.6484zm-5.3398 15.461 1.0312-0.37109c0.12109-0.039063 0.23047-0.058594 0.33984-0.058594 0.26953 0 0.48047 0.12109 0.57031 0.17969 0.12891 0.089843 0.42188 0.35156 0.42188 0.82031 0 0.42188-0.26172 0.80078-0.66016 0.94141l-1.0195 0.37109c-0.44922 0.16016-0.78906-0.03125-0.92188-0.12109-0.12109-0.089844-0.42188-0.35156-0.42188-0.82031 0-0.42188 0.26172-0.80078 0.66016-0.92969z"/></svg>