<svg xmlns="http://www.w3.org/2000/svg" version="1.1" viewBox="-5.0 -10.0 110.0 135.0">
 <path d="m59.609 13.164 27.227 27.23c-0.16406 0.17969-0.3125 0.36719-0.48828 0.53906-0.57812 0.57812-1.1953 1.0977-1.8281 1.5898l-27.043-27.043c0.49219-0.63672 1.0156-1.2539 1.5898-1.832 0.17578-0.17188 0.36328-0.32031 0.54297-0.48438zm-6.1836 13.641c3.1953 9.6328 9.8594 16.285 19.801 19.77 3.8008-0.10156 7.418-1.3086 10.484-3.4453l-26.84-26.84c-2.1406 3.0742-3.3516 6.7031-3.4453 10.516zm30.953 31.781c-1.4766-1.4375-3.0039-2.9258-4.25-4.4844-0.23438-0.28906-0.54297-0.21094-0.63281-0.17578-0.19531 0.070313-0.40234 0.25-0.40234 0.5625l0.015625 21.691c0 0.17969-0.09375 0.34375-0.25 0.43359-0.15234 0.089844-0.34375 0.089844-0.5 0-1.1094-0.63672-2.3594-0.94141-3.6367-0.94141-2.2734 0-4.6328 0.97266-6.4688 2.8047-1.6523 1.6523-2.6367 3.7656-2.7773 5.9531-0.14062 2.1641 0.57031 4.1367 1.9922 5.5625 2.957 2.957 8.125 2.6055 11.516-0.78516 2.2344-2.2344 3.2344-5.3594 2.6133-8.1523-0.007812-0.035157-0.011718-0.070313-0.011718-0.10938l-0.007813-15.098c0-0.48438 0.24609-0.92969 0.66406-1.1914 0.40625-0.25391 0.90625-0.28125 1.3359-0.070312 5.1328 2.5273 7.4141 8.207 6.1289 14.832 5.4688-10.309-0.015625-15.652-5.3281-20.832zm-24.027-46.094 27.156 27.156c6.332-7.5703 5.9492-18.891-1.1602-26-7.1094-7.1094-18.426-7.4883-25.996-1.1562zm-7.6094 15.363-5.1875 6.0352c4.9883 6.4961 11.234 12.742 18.562 18.562l6.0625-5.207c-9.5977-3.5625-16.129-10.082-19.438-19.391zm-5.8516 6.8086-37.793 43.977c-1.5391 1.793-1.4375 4.5039 0.23438 6.1758l5.8516 5.8555c1.6719 1.6719 4.3828 1.7734 6.1719 0.23438l43.992-37.793c-7.2656-5.7852-13.473-11.992-18.457-18.449zm-36.879 9.4375c1.4258 1.4258 3.3984 2.1289 5.5625 1.9922 2.1875-0.14062 4.3008-1.1289 5.9531-2.7773 2.2344-2.2344 3.2344-5.3594 2.6133-8.1523-0.007813-0.035156-0.011719-0.070312-0.011719-0.10937l-0.007812-15.098c0-0.48828 0.25-0.93359 0.66406-1.1914 0.40625-0.25391 0.90625-0.28125 1.3359-0.070313 5.1328 2.5273 7.4141 8.207 6.125 14.828 5.4648-10.305-0.019532-15.648-5.332-20.828-1.4766-1.4375-3.0039-2.9258-4.25-4.4844-0.23047-0.28906-0.54687-0.21094-0.63281-0.17578-0.19531 0.070313-0.40234 0.25-0.40234 0.5625l0.015625 21.691c0 0.17969-0.09375 0.34375-0.25 0.43359-0.15234 0.089844-0.34375 0.089844-0.5 0-1.1094-0.63672-2.3594-0.94141-3.6367-0.94141-2.2734 0-4.6328 0.97266-6.4688 2.8047-3.3828 3.3906-3.7344 8.5547-0.77734 11.516z"/></svg>