<svg xmlns="http://www.w3.org/2000/svg" version="1.1" viewBox="-5.0 -10.0 110.0 135.0">
 <path d="m29 30.441c0 7.6094 6.1914 13.801 13.801 13.801s13.801-6.1914 13.801-13.801-6.1914-13.801-13.801-13.801-13.801 6.1875-13.801 13.801zm25.41 0c0 6.3984-5.2109 11.609-11.609 11.609-6.3984 0-11.609-5.2109-11.609-11.609 0-6.3984 5.2109-11.609 11.609-11.609 6.3984-0.003906 11.609 5.1992 11.609 11.609zm-5.7109 16.66h-11.809c-11.941 0-21.648 8.9883-21.648 20.051v26.48c0 0.60156 0.48828 1.0898 1.0898 1.0898h52.922c0.60156 0 1.0898-0.48828 1.0898-1.0898l-0.003906-26.484c0.011718-11.059-9.6992-20.047-21.641-20.047zm19.473 45.438h-10.152v-21.629c0-0.60156-0.48828-1.0898-1.0898-1.0898-0.60156 0-1.0898 0.48828-1.0898 1.0898v21.629h-26.09v-21.629c0-0.60156-0.48828-1.0898-1.0898-1.0898-0.60156 0-1.0898 0.48828-1.0898 1.0898v21.629h-10.148v-25.391c0-9.8516 8.7305-17.871 19.469-17.871l11.809 0.003906c10.73 0 19.469 8.0195 19.469 17.871zm-47.094-55.867h2.6211c1.6719 0 3.0312-1.3594 3.0312-3.0312v-6.4102c0-1.6719-1.3594-3.0312-3.0312-3.0312h-0.17188c0.48828-7.1719 5.7695-13.109 12.82-14.441 0.26953 0.98047 1.1602 1.7109 2.2188 1.7109h8.4414c1.0703 0 1.9609-0.73047 2.2188-1.7109 7.0586 1.3398 12.328 7.2812 12.82 14.441h-0.17188c-1.6719 0-3.0312 1.3594-3.0312 3.0312v6.4102c0 1.6719 1.3594 3.0312 3.0312 3.0312h2.6211c1.6719 0 3.0312-1.3594 3.0312-3.0312v-6.4102c0-1.6719-1.3594-3.0312-3.0312-3.0312h-0.26953c-0.5-8.3281-6.6797-15.23-14.922-16.641-0.019532-1.2617-1.0391-2.2812-2.3086-2.2812h-8.4414c-1.2617 0-2.2891 1.0195-2.3086 2.2812-8.2383 1.4102-14.422 8.3086-14.922 16.641h-0.26953c-1.6719 0-3.0312 1.3594-3.0312 3.0312v6.4102c0.027343 1.668 1.3867 3.0312 3.0547 3.0312zm44.281-9.4414v6.4102c0 0.46875-0.37891 0.85156-0.85156 0.85156h-2.6211c-0.46875 0-0.85156-0.37891-0.85156-0.85156v-6.4102c0-0.46875 0.37891-0.85156 0.85156-0.85156h2.6211c0.47266 0 0.85156 0.38281 0.85156 0.85156zm-26.918-19.641c0-0.070313 0.058594-0.12891 0.12891-0.12891h8.4414c0.070312 0 0.12891 0.058593 0.12891 0.12891v1.5586c0 0.070312-0.058594 0.12891-0.12891 0.12891h-8.4414c-0.070312 0-0.12891-0.058594-0.12891-0.12891zm-18.211 19.641c0-0.46875 0.37891-0.85156 0.85156-0.85156h2.6211c0.46875 0 0.85156 0.37891 0.85156 0.85156v6.4102c0 0.46875-0.37891 0.85156-0.85156 0.85156h-2.6211c-0.46875 0-0.85156-0.37891-0.85156-0.85156zm64.211-0.24219-3.1406-3.1406c-0.58984-0.58984-1.4805-0.76953-2.25-0.44922-0.76953 0.32031-1.2695 1.0703-1.2695 1.9102v14.648c-0.51172-0.14844-1.0781-0.23047-1.6992-0.21875-1.5117 0.019531-3.2188 0.53906-4.8008 1.4492-3.5195 2.0312-5.2812 5.3398-4.0117 7.5391 0.67188 1.1484 2.0195 1.7383 3.6602 1.7383 1.4805 0 3.2109-0.48047 4.8789-1.4414 3.3594-1.9414 5.1094-5.0508 4.1602-7.2383v-16.184l2.9414 2.9414c0.42969 0.42969 1.1211 0.42969 1.5391 0 0.41016-0.43359 0.41016-1.1211-0.007813-1.5547zm-9.7305 20.152c-2.5117 1.4492-5 1.4609-5.5586 0.5-0.55078-0.96094 0.69922-3.1094 3.2109-4.5586 1.25-0.71875 2.6094-1.1406 3.7383-1.1602 0.91016 0.011719 1.5703 0.23047 1.8203 0.66016 0.55859 0.95703-0.70312 3.1172-3.2109 4.5586z"/></svg>