<svg xmlns="http://www.w3.org/2000/svg" version="1.1" viewBox="-5.0 -10.0 110.0 135.0">
 <path d="m8.8125 66.469v-10.562c0.003906-0.42969 0.35156-0.77734 0.78125-0.78125h1.1445c2.3906-0.050781 4.5156-1.5469 5.3672-3.7812v-0.09375c0.98047-2.1719 0.55859-4.7148-1.0625-6.457l-0.8125-0.8125c-0.30469-0.30469-0.30469-0.80078 0-1.1055l7.4688-7.457c0.30859-0.29688 0.79297-0.29688 1.1016 0l0.8125 0.8125c0.82031 0.81641 1.8711 1.3633 3.0117 1.5703v6.3438c0.011719 0.83984 0.39453 1.6289 1.043 2.1562-4.3867 3.5742-7 8.8828-7.1523 14.539s2.1719 11.098 6.3594 14.902c4.1875 3.8047 9.8242 5.5938 15.441 4.9023 5.6172-0.69141 10.652-3.8008 13.789-8.5078h7.5312c-0.51562 1.9531 0.027343 4.0352 1.4375 5.4883l0.80078 0.8125c0.30469 0.30469 0.30469 0.80078 0 1.1055l-7.4688 7.4688c-0.30859 0.29297-0.79297 0.29297-1.1055 0l-0.8125-0.8125c-1.7383-1.6523-4.3008-2.0898-6.4883-1.1055h-0.09375c-2.2305 0.85547-3.7266 2.9766-3.7812 5.3633v1.2109c0 0.42969-0.35156 0.78125-0.78125 0.78125h-10.574c-0.42969-0.007813-0.77344-0.35156-0.78125-0.78125v-1.1484c-0.042969-2.3984-1.5391-4.5312-3.7812-5.3828h-0.10547 0.003907c-2.1875-0.98828-4.7539-0.55078-6.4922 1.1016l-0.8125 0.8125c-0.30859 0.29688-0.79297 0.29688-1.1016 0l-7.4688-7.4688c-0.30469-0.30469-0.30469-0.79688 0-1.1016l0.8125-0.8125c1.6562-1.7422 2.0898-4.3125 1.1016-6.5v-0.09375c-0.85547-2.2344-2.9727-3.7266-5.3633-3.7812h-1.1875c-0.21484 0-0.42188-0.089844-0.56641-0.24609-0.14844-0.15234-0.22656-0.36328-0.21484-0.57812zm82.375-32.938v10.562c-0.003906 0.42969-0.35156 0.77734-0.78125 0.78125h-1.1445c-2.3906 0.050781-4.5156 1.5469-5.3672 3.7812l-0.050781 0.10547c-0.95703 2.1758-0.51953 4.7188 1.1133 6.4453l0.8125 0.8125c0.30469 0.30469 0.30469 0.80078 0 1.1055l-7.4688 7.4688c-0.30859 0.29297-0.79297 0.29297-1.1016 0l-0.8125-0.8125c-1.7422-1.6562-4.3125-2.0938-6.5-1.1055h-0.09375c-2.2344 0.85156-3.7305 2.9766-3.7812 5.3672v1.1445c-0.007813 0.42969-0.35156 0.77734-0.78125 0.78125h-10.562c-0.43359 0-0.78125-0.35156-0.78125-0.78125v-1.0625c-0.058594-2.3906-1.5508-4.5078-3.7812-5.3633h-0.10547c-2.1875-0.98047-4.7539-0.53906-6.4883 1.1133l-0.8125 0.8125c-0.3125 0.29297-0.79688 0.29297-1.1055 0l-7.4688-7.4688c-0.30469-0.30469-0.30469-0.80078 0-1.1055l0.80078-0.8125c1.6875-1.7422 2.1328-4.3477 1.1172-6.5508v-0.09375c-0.85156-2.2344-2.9766-3.7305-5.3672-3.7812h-1.1445c-0.42969-0.003906-0.77734-0.35156-0.78125-0.78125v-10.562c0.003906-0.42969 0.35156-0.77734 0.78125-0.78125h1.1445c2.3906-0.050781 4.5156-1.5469 5.3672-3.7812v-0.09375c0.98828-2.1914 0.54688-4.7656-1.1172-6.5l-0.80078-0.8125c-0.30469-0.30469-0.30469-0.80078 0-1.1055l7.4688-7.4688c0.30859-0.29297 0.79297-0.29297 1.1055 0l0.8125 0.8125c1.6328 1.6523 4.1094 2.1367 6.25 1.2305l0.65625-0.28125c2.1133-0.87109 3.4961-2.9219 3.5078-5.207v-1.2109c0-0.42969 0.35156-0.78125 0.78125-0.78125h10.523c0.42969 0.007813 0.77344 0.35156 0.78125 0.78125v1.1484c0.011719 2.2812 1.3906 4.332 3.5 5.207l0.375 0.15625c2.2969 0.97266 4.957 0.45703 6.7266-1.3008l0.58594-0.58594c0.30469-0.30469 0.79688-0.30469 1.1016 0l7.4688 7.4688c0.30469 0.30469 0.30469 0.80078 0 1.1055l-0.8125 0.8125c-1.6562 1.7422-2.0898 4.3086-1.1016 6.5v0.09375c0.85156 2.2344 2.9727 3.7305 5.3633 3.7812h1.1445c0.21875-0.007812 0.43359 0.074219 0.58984 0.22656 0.15625 0.15625 0.24219 0.36719 0.23438 0.58594zm-16.906-8.9883c0.015625-0.89062-0.36719-1.7422-1.043-2.3242-0.69141-0.57422-1.6094-0.80078-2.4883-0.61328l-17.156 3.3945c-1.3984 0.28125-2.4062 1.5117-2.4062 2.9375v15.105c-2.7148-0.46875-5.4297 0.80859-6.7969 3.1953-1.3711 2.3906-1.1016 5.3789 0.67188 7.4844 1.7773 2.1055 4.6758 2.875 7.2617 1.9297 2.5859-0.94922 4.3047-3.4102 4.3008-6.1641 0.003906-0.066406 0.003906-0.12891 0-0.19531 0.003906-0.035157 0.003906-0.070313 0-0.10547v-17.938l12.125-2.418v9.8125c-0.34375-0.0625-0.69141-0.097656-1.043-0.10156-2.6445 0-5.0312 1.5898-6.0469 4.0312-1.0156 2.4414-0.46484 5.2578 1.3984 7.1328 1.8633 1.8789 4.6719 2.4531 7.1211 1.4531 2.4492-0.99609 4.0586-3.3672 4.082-6.0156v-20.602zm-3.2812-1.4062-17.094 3.4375c-0.66797 0.13672-1.1523 0.72266-1.1562 1.4062v16.113c0 0.25391-0.12109 0.49219-0.32812 0.64062s-0.47266 0.18359-0.71484 0.097656c-0.52344-0.18359-1.0781-0.28125-1.6328-0.28125-2.0195 0-3.8398 1.2188-4.6133 3.082-0.76953 1.8672-0.33984 4.0156 1.0859 5.4414 1.4297 1.4258 3.5781 1.8516 5.4414 1.0742 1.8672-0.77734 3.0781-2.5977 3.0742-4.6172v-0.17578c-0.003906-0.058594-0.003906-0.12109 0-0.17969v-18.539c-0.003906-0.375 0.25781-0.69922 0.625-0.77344l13.719-2.7812c0.22656-0.046875 0.46484 0.007813 0.64453 0.15625 0.18359 0.14844 0.29297 0.37109 0.29297 0.60547v11.793c-0.003906 0.25-0.12109 0.48438-0.32422 0.63281-0.20312 0.14844-0.46875 0.1875-0.70703 0.10547-0.51953-0.16797-1.0586-0.25-1.6055-0.25-2.0195 0-3.8359 1.2188-4.6094 3.082-0.77344 1.8672-0.34375 4.0117 1.0859 5.4375 1.4297 1.4297 3.5781 1.8516 5.4414 1.0781 1.8633-0.77734 3.0781-2.5977 3.0742-4.6172v-20.562c0-0.43359-0.19141-0.84375-0.52344-1.1133-0.33594-0.27344-0.77344-0.38281-1.1953-0.29297z"/></svg>