<svg xmlns="http://www.w3.org/2000/svg" version="1.1" viewBox="-5.0 -10.0 110.0 135.0">
 <path d="m16.668 57.121h66.656c1.875 0 3.5859 0.76953 4.8164 2.0039 1.2344 1.2344 2.0039 2.9414 2.0039 4.8164v26.238c0 1.8711-0.76953 3.5742-2.0039 4.8125-1.2344 1.2383-2.9414 2.0117-4.8164 2.0117h-66.66c-1.8711 0-3.5742-0.76953-4.8125-2.0039-1.2422-1.2422-2.0117-2.9453-2.0117-4.8164v-26.238c0-1.875 0.76953-3.5859 2.0039-4.8164l0.10547-0.097656c1.2266-1.1797 2.8906-1.9062 4.7148-1.9062zm66.668 3.5h-2.9531v11.223c0 0.96484-0.78125 1.75-1.75 1.75h-1.2305v19.906h5.9375c0.91016 0 1.7422-0.375 2.3477-0.97656 0.60156-0.60156 0.97656-1.4297 0.97656-2.3477v-26.238c0-0.91016-0.375-1.7422-0.97656-2.3477-0.60156-0.60156-1.4336-0.97656-2.3477-0.97656zm-12.422 0h-3.3555v11.223c0 0.96484-0.78125 1.75-1.75 1.75h-1.2305v19.906h9.3203v-19.906h-1.2344c-0.96484 0-1.75-0.78125-1.75-1.75zm-12.82 0h-3.3555v11.223c0 0.96484-0.78125 1.75-1.75 1.75h-1.2344v19.906h9.3203v-19.906h-1.2344c-0.96484 0-1.75-0.78125-1.75-1.75v-11.223zm-12.82 0h-3.3555v11.223c0 0.96484-0.78125 1.75-1.75 1.75h-1.2305v19.906h9.3203v-19.906h-1.2344c-0.96484 0-1.75-0.78125-1.75-1.75zm-12.82 0h-3.3555v11.223c0 0.96484-0.78125 1.75-1.75 1.75h-1.2344v19.906h9.3242v-19.906h-1.2344c-0.96484 0-1.75-0.78125-1.75-1.75zm-12.82 0h-2.9531c-0.88281 0-1.6836 0.34375-2.3125 0.94141-0.63281 0.63672-1.0078 1.4688-1.0078 2.3789v26.238c0 0.91406 0.37109 1.7461 0.97266 2.3477 0.60156 0.60156 1.4336 0.97266 2.3477 0.97266h5.9375v-19.906h-1.2305c-0.96484 0-1.75-0.78125-1.75-1.75v-11.223zm36.391-28.18c1.8203 0 3.5078 0.58203 4.8828 1.5703v-29.27c0-0.96484 0.78125-1.75 1.75-1.75 0.83984 0 1.5469 0.59375 1.7148 1.3867 0.33984 1.168 3.5664 11.734 9.918 11.734 2.8281 0 5.2148 1.3203 6.8516 3.3516 1.0977 1.3594 1.8555 3.0469 2.1719 4.8594 0.3125 1.793 0.1875 3.7227-0.46094 5.5938-1.0703 3.0781-3.5664 5.9688-7.8984 7.75-0.89062 0.36719-1.9102-0.058594-2.2773-0.94922-0.36719-0.89062 0.058594-1.9102 0.94922-2.2773 3.293-1.3516 5.1602-3.4609 5.9297-5.6719 0.44531-1.2812 0.52734-2.6133 0.3125-3.8594-0.21484-1.2227-0.71875-2.3594-1.4492-3.2617-0.99609-1.2344-2.4336-2.0352-4.1328-2.0352-4.4883 0-7.7266-3.2773-9.8828-6.707v27.949c-0.015625 2.3203-0.94922 4.3906-2.457 5.8984l-0.10156 0.09375c-1.5117 1.4609-3.5664 2.3633-5.8242 2.3633-2.3086 0-4.4023-0.9375-5.9219-2.457-1.5234-1.5195-2.4648-3.6172-2.4648-5.9297 0-2.3086 0.9375-4.4062 2.457-5.9219 1.5234-1.5195 3.6211-2.4648 5.9297-2.4648zm-25.332 13.395v-19.309c-1.6328 2.1602-3.8945 3.9805-6.875 3.9805-1.1133 0-2.0625 0.52734-2.7148 1.3398-0.49609 0.61328-0.83594 1.3789-0.98047 2.2109-0.14844 0.84766-0.089844 1.7656 0.21484 2.6367 0.53125 1.5273 1.8359 2.9883 4.1445 3.9375 0.89062 0.36719 1.3164 1.3867 0.94922 2.2773-0.36719 0.89062-1.3867 1.3164-2.2773 0.94922-3.3477-1.3711-5.2812-3.6172-6.1133-6.0156-0.51172-1.4609-0.60547-2.9727-0.36328-4.375 0.24609-1.418 0.83984-2.7461 1.7031-3.8086 1.3008-1.6094 3.1914-2.6562 5.4375-2.6562 4.2617 0 6.5703-7.1836 6.9062-8.3164 0.15625-0.80859 0.86719-1.4141 1.7188-1.4141 0.96484 0 1.75 0.78125 1.75 1.75v20.895c0.94531-0.51172 2.0234-0.80469 3.1719-0.80469 1.7891 0 3.4141 0.70703 4.6133 1.8594l0.10547 0.097656c1.207 1.207 1.957 2.8789 1.957 4.7188 0 1.8398-0.75 3.5078-1.957 4.7148-1.207 1.207-2.8789 1.957-4.7148 1.957-1.8438 0-3.5117-0.74609-4.7148-1.957-1.1953-1.2031-1.9453-2.8516-1.957-4.6719z"/></svg>