<svg xmlns="http://www.w3.org/2000/svg" xmlns:xlink="http://www.w3.org/1999/xlink" xml:space="preserve" version="1.1" style="shape-rendering:geometricPrecision;text-rendering:geometricPrecision;image-rendering:optimizeQuality;" viewBox="-14.2045 -30.767000000000003 312.49899999999997 415.35450000000003" x="0px" y="0px" fill-rule="evenodd" clip-rule="evenodd"><defs><style type="text/css">
   
    .fil0 {fill:black}
   
  </style></defs><g><path class="fil0" d="M142.05 307.67c-31.28,0 -142.05,-163.16 -142.05,-246.74 51.98,-81.53 224.74,-80.95 284.09,0 0,72.2 -104.96,246.74 -142.05,246.74zm-106.38 -251.39c-2.76,2.31 -6.88,1.94 -9.19,-0.81 -2.31,-2.76 -1.94,-6.88 0.81,-9.19 30.45,-25.52 70.61,-36.74 110.56,-36.89 44.12,-0.17 88.2,13.25 118.66,35.82 2.89,2.14 3.49,6.22 1.35,9.11 -2.14,2.89 -6.22,3.49 -9.11,1.35 -28.29,-20.96 -69.48,-33.42 -110.9,-33.26 -37.08,0.14 -74.23,10.45 -102.18,33.88z"/></g></svg>