<svg xmlns="http://www.w3.org/2000/svg" version="1.1" viewBox="-5.0 -10.0 110.0 135.0">
 <path d="m37.777 44.699c1.5195 0 2.9062 0.57031 3.9609 1.5078v-21.094c0-0.49609 0.36328-0.91016 0.83594-0.98828l20.09-4.9414c0.53516-0.13281 1.0742 0.19531 1.207 0.73047l0.027344 0.23828 0.003906 25.469c0 1.6328-0.58594 3.1289-1.7461 4.2891-1.0781 1.0781-2.5664 1.7461-4.2148 1.7461-1.6445 0-3.1367-0.66797-4.2148-1.7461-1.0781-1.0781-1.7461-2.5664-1.7461-4.2148 0-1.6445 0.66797-3.1367 1.7461-4.2148 1.0781-1.0781 2.5703-1.7461 4.2148-1.7461 1.5195 0 2.9062 0.57031 3.9609 1.5078v-14.484l-18.164 4.4688v19.355c0 1.6328-0.58594 3.1289-1.7461 4.2891-1.0781 1.0781-2.5664 1.7461-4.2148 1.7461-1.6445 0-3.1367-0.66797-4.2148-1.7461s-1.7461-2.5664-1.7461-4.2148c0-1.6445 0.66797-3.1367 1.7461-4.2148s2.5703-1.7461 4.2148-1.7461zm-21.297 24.391-0.89844 0.44531-3.3555 23.793c3.875-1.8047 8.2734-2.707 12.664-2.707 4.8711 0 9.7539 1.1133 13.922 3.332 4.168-2.2227 9.0469-3.332 13.918-3.332 4.3906 0 8.7891 0.90234 12.664 2.707l-3.3516-23.793-0.89844-0.44922 2.75 21.395c0.035157 0.21875-0.003906 0.44922-0.12109 0.65625-0.27344 0.47656-0.88672 0.64062-1.3633 0.36328-3.4062-1.9727-7.4727-2.9609-11.547-2.9609s-8.1445 0.98828-11.551 2.9609c-0.32812 0.19141-0.6875 0.16797-1 0-2.2266-1.2852-8.9453-2.9609-11.551-2.9609-4.0742 0-8.1445 0.98828-11.551 2.9609-0.18359 0.10547-0.40234 0.15234-0.625 0.125-0.54688-0.070312-0.93359-0.56641-0.86328-1.1133l2.7578-21.426zm44.363-2.3086c0.37109 0.14844 0.72266 0.30078 1.0547 0.45703 0.52344 0.24609 1.0391 0.50781 1.5352 0.78906 0.26953 0.14453 0.46484 0.41406 0.51172 0.73828l3.6914 26.195c0.027343 0.20703-0.007813 0.42578-0.11719 0.625-0.26953 0.48047-0.87891 0.65234-1.3594 0.38281-3.9609-2.2266-8.6914-3.3398-13.43-3.3398-4.7344 0-9.4648 1.1133-13.422 3.3359-0.29297 0.16797-0.66797 0.18359-0.98438 0.003906-3.9609-2.2266-8.6953-3.3398-13.434-3.3398s-9.4688 1.1133-13.43 3.3398c-0.18359 0.10547-0.40234 0.14844-0.62891 0.12109-0.54688-0.074219-0.92578-0.57812-0.85156-1.125l3.6953-26.195c0.042969-0.29688 0.21875-0.57422 0.5-0.73438 0.5-0.28125 1.0156-0.54688 1.543-0.78906 0.34766-0.16016 0.69922-0.31641 1.0586-0.46094l0.14062-1.1016c0.03125-0.30859 0.20312-0.60156 0.49219-0.76953 0.74219-0.42969 1.5195-0.8125 2.3203-1.1445 0.63672-0.26562 1.3047-0.5 1.9883-0.70703l-0.070312-6.1836c0.070312-0.54688 0.56641-0.93359 1.1133-0.86328 3.2969 0.42188 6.4609 1.4688 9.3047 3.0078 2.6367 1.4297 5.0117 3.2969 6.9727 5.4922 3.0859-1.6133 6.6602-2.4219 10.223-2.4219 3.8477 0 7.7031 0.94531 10.949 2.8242 0.26172 0.15234 0.44922 0.41797 0.48828 0.73828l0.14453 1.1289zm-23.031 21.332v-21.969c-1.8555-2.1523-4.1406-3.9766-6.7031-5.3633-2.3086-1.2539-4.8398-2.1523-7.4688-2.6172l0.27344 23.023c2.8945 0.48828 5.7305 1.4609 8.3203 2.8633 2.0273 1.0977 3.918 2.4609 5.5742 4.0625zm1.9922-21.75v22.621c3.3828-1.6289 7.2227-2.4453 11.055-2.4453 3.7422 0 7.4922 0.77734 10.816 2.332l-2.8906-22.469c-2.8398-1.5391-6.1797-2.3125-9.5273-2.3125-3.3164 0-6.6289 0.75781-9.4531 2.2734zm-5.7383 21.195c-0.88281-0.64453-1.8086-1.2305-2.7734-1.75-2.6367-1.4258-5.543-2.3789-8.4961-2.7734-0.48047-0.066406-0.85938-0.47656-0.86328-0.97656l-0.19531-16.914c-0.41797 0.14062-0.83203 0.29688-1.2461 0.46484-0.56641 0.23438-1.125 0.50391-1.6602 0.79297-0.96484 7.4844-1.9258 14.98-2.8906 22.469 3.3242-1.5547 7.0742-2.332 10.816-2.332 2.4727 0 4.9492 0.33984 7.3047 1.0195zm46.691-61.559v-21.094c0-0.55078 0.44922-1 1-1 0.17969 0 0.34766 0.046875 0.49219 0.12891l7.2266 3.6055c0.49219 0.24609 0.69531 0.84375 0.44922 1.3398-0.24609 0.49219-0.84375 0.69531-1.3398 0.44922l-5.8281-2.9062v23.855c0 1.6328-0.58594 3.1289-1.7461 4.2891-1.0781 1.0781-2.5664 1.7461-4.2148 1.7461-1.6445 0-3.1367-0.66797-4.2148-1.7461s-1.7461-2.5664-1.7461-4.2148c0-1.6445 0.66797-3.1367 1.7461-4.2148s2.5703-1.7461 4.2148-1.7461c1.5195 0 2.9062 0.57031 3.9609 1.5078zm-1.1602 1.6562c-0.71484-0.71484-1.707-1.1602-2.8008-1.1602s-2.0859 0.44531-2.8008 1.1602-1.1602 1.707-1.1602 2.8008 0.44531 2.082 1.1602 2.8008c0.71484 0.71484 1.707 1.1602 2.8008 1.1602s2.082-0.44531 2.8008-1.1602c0.76953-0.76953 1.1602-1.7656 1.1602-2.8516-0.015624-1.0742-0.45312-2.043-1.1602-2.75zm-17.695 17.996c-0.015625-1.0742-0.45312-2.043-1.1602-2.75-0.71484-0.71484-1.707-1.1602-2.8008-1.1602s-2.0859 0.44531-2.8008 1.1602-1.1602 1.707-1.1602 2.8008 0.44531 2.082 1.1602 2.8008c0.71484 0.71484 1.707 1.1602 2.8008 1.1602s2.082-0.44531 2.8008-1.1602c0.76953-0.76953 1.1602-1.7656 1.1602-2.8516zm-18.164-19.758v3.2812l18.164-4.4688v-3.2812zm-3.1602 21.965c-0.71484-0.71484-1.707-1.1602-2.8008-1.1602s-2.0859 0.44531-2.8008 1.1602c-0.71484 0.71484-1.1602 1.707-1.1602 2.8008s0.44531 2.082 1.1602 2.8008c0.71484 0.71484 1.707 1.1602 2.8008 1.1602s2.082-0.44531 2.8008-1.1602c0.76953-0.76953 1.1602-1.7656 1.1602-2.8516-0.015625-1.0742-0.45312-2.043-1.1602-2.75z"/></svg>