<svg xmlns="http://www.w3.org/2000/svg" version="1.1" viewBox="-5.0 -10.0 110.0 135.0">
 <path d="m35.281 62.961v-8.2695c0-1.2188 0.42188-2.2305 1.2812-3.1016l9.1797-9.1719c1.5586-1.5586 1.2305-3.6602 0.12109-4.8516-1.0781-1.1602-3.0195-1.6016-4.6406-0.19141l-8.1719 7.1406c-0.75 0.66016-1.5586 1-2.5312 1.0703 1.9414-0.87109 3.3008-2.8281 3.3008-5.0898 0-3.0781-2.5-5.5781-5.5781-5.5781-3.0781 0-5.5781 2.5-5.5781 5.5781 0 2.2188 1.3086 4.1484 3.1914 5.0508-0.78125-0.12891-1.4609-0.46094-2.1016-1.0195l-8.1719-7.1406c-1.6094-1.4102-3.5508-0.96875-4.6406 0.19141-1.1094 1.1914-1.4414 3.2891 0.12109 4.8516l9.1797 9.1719c0.85937 0.85938 1.2812 1.8789 1.2812 3.1016v8.2695l-1.625 23.066c-0.16016 2.2891 1.4805 3.6914 3.1797 3.8984 1.5898 0.19141 3.3984-0.71875 3.7617-2.8398l1.5586-9.1602 1.5586 9.1602c0.32812 1.9609 1.8789 2.8984 3.3594 2.8984 0.14062 0 0.28125-0.011719 0.42188-0.019532 1.6914-0.19922 3.3203-1.6211 3.1602-3.9297zm-7.0312-25.512c1.6797 0 3.0508 1.3711 3.0508 3.0508s-1.3711 3.0508-3.0508 3.0508-3.0508-1.3711-3.0508-3.0508c-0.007813-1.6797 1.3594-3.0508 3.0508-3.0508zm4.5 25.652 1.6289 23.121c0.078125 1.0703-0.76953 1.2188-0.94141 1.2383-0.30859 0.039062-0.85156-0.011719-0.98828-0.78125l-2.8086-16.461c-0.10156-0.60938-0.62891-1.0508-1.25-1.0508s-1.1406 0.44141-1.25 1.0508l-2.8086 16.461c-0.12109 0.69922-0.58984 0.80078-0.96094 0.75-0.10938-0.011719-1.0312-0.16016-0.96094-1.2109l1.6289-23.121v-0.089844-8.3086c0-1.8984-0.67969-3.5391-2.0312-4.8906l-9.1797-9.1719c-0.64062-0.64062-0.16016-1.2188-0.058594-1.3281 0.23047-0.25 0.62109-0.46094 1.1211-0.011719l8.1719 7.1406c1.3008 1.1289 2.8281 1.7109 4.5508 1.7109h3.5391c1.7188 0 3.25-0.57031 4.5508-1.7109l8.1719-7.1406c0.5-0.44141 0.89062-0.23828 1.1211 0.011719 0.10156 0.10938 0.57812 0.69141-0.058594 1.3281l-9.1797 9.1719c-1.3398 1.3398-2.0312 2.9883-2.0312 4.8906v8.3086c0.023438 0.03125 0.023438 0.0625 0.023438 0.09375zm47.109-11.66 9.0781-9.0703c1.5508-1.5508 1.2188-3.6406 0.12109-4.8203-1.0781-1.1484-3.0117-1.5898-4.6094-0.19141l-8.0781 7.0703c-0.71875 0.62891-1.5 0.96875-2.4219 1.0508 1.8906-0.87891 3.2109-2.8008 3.2109-5.0195 0-3.0508-2.4805-5.5391-5.5391-5.5391-3.0508 0-5.5391 2.4805-5.5391 5.5391 0 2.1719 1.2617 4.0586 3.0781 4.9609-0.73047-0.14062-1.3789-0.46094-1.9805-0.98828l-8.0781-7.0703c-1.6016-1.3984-3.5312-0.96094-4.6094 0.19141-1.1016 1.1797-1.4297 3.2695 0.12109 4.8203l9.0781 9.0703c0.85156 0.85156 1.2695 1.8516 1.2695 3.0586v8.2305c0 3.5312-0.69922 6.8789-2.2617 10.859-0.19141 0.48828-0.17969 1.0312 0.03125 1.5 0.19922 0.44141 0.55078 0.76953 0.98828 0.94141 0.089844 0.03125 0.19922 0.070313 0.30859 0.10156l-0.69141 9.9805c-0.14844 2.2383 1.4414 3.6406 3.0898 3.8594 0.14844 0.019532 0.30078 0.03125 0.44922 0.03125 1.4492 0 2.9688-0.91016 3.3516-2.8008l1.5391-7.7383 1.5391 7.7383c0.42187 2.1016 2.2305 2.9805 3.8008 2.7695 1.6484-0.21875 3.2383-1.6211 3.0898-3.8594l-0.69141-9.9805c0.10938-0.03125 0.21094-0.070313 0.30859-0.10156 0.44922-0.17188 0.80078-0.5 0.98828-0.94141 0.21094-0.46875 0.21875-1.0195 0.03125-1.5-1.5586-3.9805-2.2617-7.3281-2.2617-10.859l0.007813-8.2344c0.011719-1.1992 0.42188-2.1992 1.2812-3.0586zm-8.2383-13.992c1.6602 0 3.0117 1.3516 3.0117 3.0117 0 1.6602-1.3516 3.0117-3.0117 3.0117s-3.0117-1.3516-3.0117-3.0117c0-1.6602 1.3516-3.0117 3.0117-3.0117zm-3.8711 49.25c-0.14844 0.75-0.67969 0.80078-0.98828 0.76172-0.16016-0.019532-0.96094-0.17969-0.89844-1.1797l0.67969-9.9297c0.57812-0.089843 1.1914-0.28125 1.8008-0.64844 0.30859-0.19141 0.35156-0.21094 1.1992 0.35938 0.089843 0.058594 0.17969 0.12109 0.28125 0.19141zm9.0312 0.76172c-0.30078 0.039062-0.83984 0-0.98828-0.76172l-2.0781-10.43c0.12109-0.078125 0.23047-0.14844 0.32812-0.21875 0.80078-0.55078 0.83984-0.53125 1.1406-0.33984 0.60938 0.37109 1.2188 0.55859 1.7891 0.64844l0.67969 9.9297c0.085937 0.99219-0.71094 1.1523-0.87109 1.1719zm1.4492-13.621c-0.51172 0.078125-1.1406 0.058594-1.7305-0.30078-1.7305-1.0508-3.0195-0.17187-3.8789 0.42188-0.17188 0.10937-0.33984 0.23047-0.51953 0.33984-0.23047 0.14062-0.39844 0.14062-0.62891 0-0.17969-0.10938-0.35156-0.21875-0.51953-0.33984-0.57812-0.39063-1.3516-0.91016-2.3086-0.91016-0.48828 0-1.0195 0.12891-1.6094 0.48828-0.58984 0.35156-1.2109 0.37891-1.7305 0.30078 1.5-4 2.1719-7.4492 2.1719-11.109l-0.007812-8.2305c0-1.8789-0.67969-3.5117-2.0117-4.8516l-9.0781-9.0703c-0.62891-0.62891-0.16016-1.1914-0.058594-1.3008 0.23047-0.23828 0.60156-0.44141 1.0898-0.011719l8.0781 7.0703c1.2812 1.1211 2.8008 1.6914 4.5117 1.6914h3.5c1.7109 0 3.2188-0.57031 4.5117-1.6914l8.0781-7.0703c0.48828-0.42969 0.87109-0.23047 1.0898 0.011719 0.10156 0.10938 0.57031 0.67188-0.058594 1.3008l-9.0781 9.0703c-1.3281 1.3281-2.0117 2.9609-2.0117 4.8516v8.2305c0.027344 3.6602 0.69922 7.1094 2.1992 11.109zm-23.641-38.371c0.69922 0 1.2617-0.57031 1.2617-1.2617v-6.5078c2.6211 1.6289 4.9609 2.4414 7.0898 2.4414 0.62109 0 1.2188-0.070313 1.8086-0.19922 2.8711-0.67188 5.2617-2.9102 7.3008-6.8516 0.28125-0.53906 0.14062-1.1914-0.32812-1.5703-0.46875-0.37891-1.1406-0.37109-1.6016 0.019531-2.6289 2.1992-5 2.1211-7.2305-0.25-2.4805-3.1289-5.0508-4.0117-8.1484-4.3594h-0.011719c-0.03125 0-0.058594 0-0.089844-0.011719h-0.050781c-0.03125 0-0.070313 0-0.10156 0.011719h-0.019531c-0.12891 0.011718-0.26172 0.050781-0.37891 0.10156-0.011719 0-0.011719 0.011719-0.019532 0.011719-0.03125 0.011719-0.058593 0.03125-0.089843 0.050781-0.011719 0.011719-0.019531 0.011719-0.03125 0.019531-0.03125 0.019531-0.050781 0.03125-0.070313 0.050781-0.011718 0.011719-0.03125 0.019532-0.039062 0.03125-0.019532 0.019532-0.039063 0.03125-0.058594 0.050782-0.011719 0-0.011719 0.011718-0.019531 0.011718-0.011719 0.011719-0.011719 0.011719-0.019531 0.019532-0.019532 0.019531-0.039063 0.03125-0.050782 0.050781-0.011718 0.011719-0.019531 0.03125-0.039062 0.039063-0.019532 0.019531-0.03125 0.039062-0.050782 0.058593-0.011718 0.011719-0.019531 0.03125-0.03125 0.039063-0.019531 0.019531-0.03125 0.050781-0.039062 0.070312-0.011719 0.011719-0.019531 0.03125-0.019531 0.039063-0.011719 0.03125-0.03125 0.050781-0.039063 0.078125-0.011718 0.011718-0.011718 0.019531-0.019531 0.03125-0.011719 0.03125-0.03125 0.058594-0.039063 0.089844 0 0.011718-0.011718 0.019531-0.011718 0.03125-0.011719 0.03125-0.019532 0.070312-0.03125 0.10156 0 0.011719 0 0.011719-0.011719 0.019531-0.011719 0.039063-0.011719 0.070313-0.019531 0.10938v0.019532c0 0.039062-0.011719 0.089843-0.011719 0.12891v16.027c-0.007813 0.69922 0.5625 1.2578 1.2617 1.2578zm6.3398-12.578c0.019531 0.03125 0.050781 0.058594 0.070312 0.078125 1.8984 2.0312 4.0586 2.9102 6.2891 2.6211-0.96875 1-2 1.6211-3.1094 1.8789-2.2188 0.51953-4.9492-0.39844-8.3281-2.8086v-5.0117c1.957 0.39062 3.4688 1.1914 5.0781 3.2422zm-17.25 46.969c-0.25 0.30078-0.60938 0.44922-0.96875 0.44922-0.28906 0-0.57031-0.10156-0.80859-0.28906-2.8789-2.4102-4.5312-5.9414-4.5312-9.6914 0-6.6719 5.2109-12.211 11.871-12.609 0.69922-0.039062 1.3008 0.48828 1.3398 1.1914 0.039063 0.69922-0.48828 1.3008-1.1914 1.3398-5.3203 0.32031-9.4883 4.75-9.4883 10.09 0 3 1.3203 5.8281 3.6211 7.75 0.52734 0.44141 0.59766 1.2383 0.15625 1.7695zm18.961-9.5312c0 6.9688-5.6719 12.641-12.641 12.641-0.69922 0-1.2617-0.57031-1.2617-1.2617 0-0.69922 0.57031-1.2617 1.2617-1.2617 5.5703 0 10.109-4.5312 10.109-10.109 0-1.9219-0.53906-3.7891-1.5586-5.3984-0.37109-0.58984-0.19922-1.3711 0.39062-1.75 0.58984-0.37109 1.3711-0.19922 1.75 0.39062 1.2695 2.0117 1.9492 4.3516 1.9492 6.75zm-6.7891 0v-13.41c0-0.69922-0.57031-1.2617-1.2617-1.2617s-1.2617 0.57031-1.2617 1.2617v8.6016c-0.94141-0.64844-2.0898-1.0391-3.3203-1.0391-3.2305 0-5.8516 2.6289-5.8516 5.8516 0 3.2188 2.6289 5.8516 5.8516 5.8516 3.2227-0.003906 5.8438-2.6328 5.8438-5.8555zm-9.1719 0c0-1.8281 1.4883-3.3203 3.3203-3.3203 1.8281 0 3.3203 1.4883 3.3203 3.3203 0 1.8281-1.4883 3.3203-3.3203 3.3203-1.8281 0-3.3203-1.4883-3.3203-3.3203zm-25.25-30.719c2.2891 0 4.1484-1.8594 4.1484-4.1484v-8.7695h11.648v3.0195c-0.5-0.21094-1.0391-0.32813-1.6211-0.32813-2.2891 0-4.1484 1.8594-4.1484 4.1484s1.8594 4.1484 4.1484 4.1484c2.2891 0 4.1484-1.8594 4.1484-4.1484l0.007813-12.27c0-0.69922-0.57031-1.2617-1.2617-1.2617h-14.191c-0.69922 0-1.2617 0.57031-1.2617 1.2617v10.379c-0.5-0.21094-1.0391-0.32812-1.6211-0.32812-2.2891 0-4.1484 1.8594-4.1484 4.1484 0.003906 2.2891 1.8633 4.1484 4.1523 4.1484zm14.18-4.4688c-0.89062 0-1.6211-0.73047-1.6211-1.6211s0.73047-1.6211 1.6211-1.6211 1.6211 0.71875 1.6211 1.6211c0 0.90234-0.71875 1.6211-1.6211 1.6211zm1.6211-12.609v1.6289h-11.652v-1.6289zm-15.801 11.309c0.89062 0 1.6211 0.71875 1.6211 1.6211 0 0.89062-0.73047 1.6211-1.6211 1.6211-0.89063 0-1.6211-0.73047-1.6211-1.6211 0-0.89063 0.73047-1.6211 1.6211-1.6211z"/></svg>