<svg xmlns="http://www.w3.org/2000/svg" version="1.1" viewBox="-5.0 -10.0 110.0 135.0">
 <path d="m27.871 36.531c2.4297 0 4.3906 1.9688 4.3906 4.3906 0 2.4297-1.9688 4.3906-4.3906 4.3906-2.4297 0-4.3906-1.9688-4.3906-4.3906s1.9609-4.3906 4.3906-4.3906zm7.5508 14.77 9.3398-9.3281c2.0195-2.0195-0.69141-5.1289-2.8398-3.25l-8.3086 7.2617c-1.0898 0.94922-2.3281 1.4219-3.7812 1.4219h-3.6016c-1.4492 0-2.6914-0.46875-3.7812-1.4219l-8.3086-7.2617c-2.1484-1.8789-4.8594 1.2305-2.8398 3.25l9.3398 9.3281c1.1211 1.1211 1.6797 2.4805 1.6797 4.0586v8.4609l-1.6602 23.52c-0.21094 2.9609 4.0117 3.6602 4.5117 0.76953l2.8594-16.75 2.8594 16.75c0.5 2.8984 4.7188 2.2812 4.5117-0.76953l-1.6602-23.52v-8.4609c-0.003907-1.5781 0.55859-2.9375 1.6797-4.0586zm43.379 26.77c-1.1992 0.10938-2.4102-0.12891-3.4805-0.76953-0.32031 0.17188-0.91016 0.60938-1.1484 0.76172-0.35938 0.21875-0.73047 0.37109-1.1094 0.46875l1.9219 9.6602c0.57031 2.8398 4.6602 2.1719 4.4609-0.76953zm-9.8008-0.76953c-1.0781 0.64844-2.2891 0.89062-3.4883 0.78125l-0.64062 9.3398c-0.19922 2.9297 3.8906 3.6094 4.4609 0.76953l1.9219-9.6719c-0.35938-0.089843-0.71094-0.23828-1.0508-0.44922-0.24219-0.14844-0.88281-0.62109-1.2031-0.76953zm-1.3516-36.422c0 2.3984 1.9492 4.3516 4.3516 4.3516 2.3984 0 4.3516-1.9492 4.3516-4.3516 0-2.3984-1.9492-4.3516-4.3516-4.3516-2.4102 0.003906-4.3516 1.9531-4.3516 4.3516zm11.812 10.27 9.2383-9.2305c2-2-0.67969-5.0703-2.8086-3.2109l-8.2305 7.1914c-1.0781 0.94141-2.3086 1.3984-3.7383 1.3984h-3.5586c-1.4297 0-2.6602-0.46094-3.7383-1.3984l-8.2305-7.1914c-2.1289-1.8594-4.8086 1.2188-2.8086 3.2109l9.2383 9.2305c1.1094 1.1094 1.6719 2.4492 1.6719 4.0195v8.3711c0 4.0781-0.89062 7.6992-2.3906 11.52-0.10938 0.28125-0.03125 0.67969 0.28906 0.80078 0.73828 0.28125 2.1992 0.62109 3.5898-0.21875 1.2891-0.78125 2.0508 0.089844 3.1914 0.76953 0.64844 0.39062 1.3281 0.39062 1.9688-0.011718 1.1289-0.69141 1.8516-1.5508 3.1406-0.76953 1.3906 0.83984 2.8516 0.48828 3.5898 0.21875 0.32812-0.12109 0.39844-0.51953 0.28906-0.80078-1.5-3.8203-2.3906-7.4414-2.3906-11.52v-8.3711c0.027343-1.5547 0.58594-2.8945 1.6875-4.0078zm-26.082-15.34c0.71094 0 1.2891-0.57812 1.2891-1.2891l0.003906-8.7188c6.9805 5 12.148 4.6094 16.172-3.1914-3.5508 2.9688-6.75 2.1797-9.1602-0.39844-2.2305-2.8398-4.4492-3.6016-7.0117-3.9414v-0.058593c0-0.71094-0.57812-1.2891-1.2891-1.2891-0.71094 0-1.2891 0.57812-1.2891 1.2891v16.309c-0.003906 0.71094 0.57812 1.2891 1.2852 1.2891zm1.293 25.32v-0.03125-13.648c0-0.71094-0.57812-1.2891-1.2891-1.2891-0.71094 0-1.2891 0.57812-1.2891 1.2891v9.4688c-0.62891-0.32031-1.3398-0.48828-2.0898-0.48828-2.5781 0-4.6719 2.0898-4.6719 4.6719 0 2.5781 2.0898 4.6719 4.6719 4.6719 2.5664-0.011719 4.6445-2.082 4.668-4.6445zm6.1875-6.9102c-0.37891-0.60156-1.1719-0.78125-1.7695-0.39844-0.60156 0.37891-0.78125 1.1719-0.39844 1.7695 0.51953 0.80859 0.92188 1.6992 1.1914 2.6289 0.26172 0.89844 0.39844 1.8594 0.39844 2.8711 0 2.8398-1.1484 5.4102-3.0117 7.2695-1.8594 1.8594-4.4297 3.0117-7.2695 3.0117-0.71094 0-1.2891 0.57812-1.2891 1.2891 0 0.71094 0.57812 1.2891 1.2891 1.2891 3.5508 0 6.7617-1.4414 9.0898-3.7695 2.3281-2.3281 3.7695-5.5391 3.7695-9.0898 0-1.2305-0.17969-2.4297-0.51172-3.5781-0.34766-1.1836-0.84766-2.2812-1.4883-3.293zm-17.461 14.77c-1.1484-0.96094-2.0898-2.1719-2.7305-3.5391-0.60938-1.3086-0.96094-2.7891-0.96094-4.3516 0-2.7305 1.0586-5.2109 2.7891-7.0508 1.7383-1.8516 4.1602-3.0586 6.8594-3.2188 0.71094-0.039063 1.25-0.64844 1.2109-1.3594-0.039062-0.71094-0.64844-1.25-1.3594-1.2109-3.3789 0.19922-6.3984 1.7109-8.5781 4.0195-2.1719 2.3008-3.4883 5.3984-3.4883 8.8008 0 1.9297 0.42969 3.7812 1.2109 5.4414 0.80078 1.7188 1.9688 3.2305 3.3984 4.4297 0.53906 0.46094 1.3516 0.37891 1.8086-0.16016 0.46094-0.53906 0.39062-1.3477-0.16016-1.8008zm-25.039-43.449c0-1.6719 1.3516-3.0195 3.0195-3.0195 0.14844 0 0.30078 0.011719 0.44922 0.03125v-11.262c0-0.71094 0.57812-1.2891 1.2891-1.2891h14.078c0.71094 0 1.2891 0.57812 1.2891 1.2891v12.172h-0.011719c0.011719 0.078124 0.011719 0.14844 0.011719 0.23047 0 1.7109-1.3789 3.0898-3.0898 3.0898-1.7109 0-3.0898-1.3789-3.0898-3.0898 0-1.7109 1.3789-3.0898 3.0898-3.0898 0.17969 0 0.35156 0.019532 0.51953 0.039063l0.007813-3.9414h-11.523v8.6797 0.16016c0 1.6719-1.3516 3.0195-3.0195 3.0195-1.668 0-3.0195-1.3477-3.0195-3.0195zm6.0391-11.41h11.5v-1.5508h-11.5z" fill-rule="evenodd"/></svg>