<svg xmlns="http://www.w3.org/2000/svg" version="1.1" viewBox="-5.0 -10.0 110.0 135.0">
 <path d="m50.219 74.629c3.5352 0 6.4102-2.875 6.4102-6.4102s-2.875-6.4102-6.4102-6.4102-6.4102 2.875-6.4102 6.4102 2.8789 6.4102 6.4102 6.4102zm0-11.258c2.6719 0 4.8477 2.1758 4.8477 4.8477s-2.1758 4.8477-4.8477 4.8477-4.8477-2.1758-4.8477-4.8477 2.1758-4.8477 4.8477-4.8477z"/>
 <path d="m88.535 82.418h-5.2812c0.89844-12.047-6.2109-17.922-7.9453-19.164v-8.6406c0-1.8398-1.4961-3.3359-3.3359-3.3359h-6.2852c0.46484-1.0078 0.83203-2.0625 1.0977-3.1406h1.5977c4.3711 0 7.9258-3.5547 7.9258-7.9258 0-3.0664-1.7539-5.7266-4.3047-7.043-0.86719-11.172-10.238-19.879-21.488-19.879-11.105 0-20.547 8.6602-21.488 19.711-0.003906 0.050781 0.011718 0.09375 0.015625 0.14453-2.582 1.3086-4.3555 3.9805-4.3555 7.0664 0 4.3711 3.5547 7.9258 7.9258 7.9258h1.5977c0.26562 1.0781 0.63281 2.1328 1.0977 3.1406h-6.8555c-1.8398 0-3.3359 1.4961-3.3359 3.3359v8.6406c-1.7383 1.2461-8.8398 7.1172-7.9453 19.164h-5.2695c-0.42969 0-0.78125 0.35156-0.78125 0.78125v9.2305c0 0.42969 0.35156 0.78125 0.78125 0.78125h76.637c0.42969 0 0.78125-0.35156 0.78125-0.78125v-9.2305c-0.003906-0.42969-0.35156-0.78125-0.78516-0.78125zm-6.8594 0h-6.3633v-17.168c2.3242 2 7.125 7.3984 6.3633 17.168zm-6.9258-42.207c0 3.5078-2.8555 6.3633-6.3633 6.3633h-1.2891c0.13281-0.87109 0.20703-1.75 0.20703-2.6328v-10.098h1.082c3.5078 0.003906 6.3633 2.8555 6.3633 6.3672zm-24.23-25.359c10.18 0 18.695 7.6953 19.848 17.695-0.63672-0.16406-1.2969-0.26172-1.9844-0.26172h-1.1367c-1.2539-8.2266-8.3398-14.367-16.727-14.367-8.3477 0-15.477 6.2305-16.727 14.367h-1.1758c-0.67578 0-1.3242 0.09375-1.9492 0.25391 1.1602-9.9648 9.75-17.688 19.852-17.688zm15.145 17.434h-0.95312c-1.4727 0-2.8125-0.80859-3.4922-2.1133l-0.92578-1.7695c-0.13281-0.25391-0.39844-0.41797-0.6875-0.41797h-0.003907c-0.28516 0-0.55078 0.15625-0.6875 0.41016l-0.98828 1.8242c-0.6875 1.2734-2.0156 2.0664-3.4648 2.0664h-19.094c1.2344-7.2734 7.6562-12.805 15.152-12.805 7.5312-0.003907 13.91 5.457 15.145 12.805zm-33.047 14.289c-3.5078 0-6.3633-2.8555-6.3633-6.3633 0-3.5078 2.8555-6.3633 6.3633-6.3633h1.0859v10.098c0 0.88281 0.074219 1.7617 0.20703 2.6328zm2.6484-2.6328v-10.098h19.191c2.0234 0 3.8789-1.1055 4.8398-2.8867l0.28906-0.53516 0.24609 0.46875c0.95312 1.8203 2.8203 2.9531 4.875 2.9531h1.0312v10.098c0 2.5586-0.62109 5.0859-1.793 7.3359h-26.887c-1.168-2.2539-1.793-4.7773-1.793-7.3359zm-6.8047 8.9023h43.512c0.97656 0 1.7734 0.79688 1.7734 1.7734v27.805l-47.055-0.003906v-27.805c0-0.97656 0.79297-1.7695 1.7695-1.7695zm-3.332 12.406v17.168h-6.3633c-0.76172-9.7695 4.0352-15.164 6.3633-17.168zm62.625 26.398h-75.07v-7.668h75.074z"/>
 <path d="m42.273 38.902c-2.293 0-4.1562 1.8633-4.1562 4.1562v0.73047c0 0.42969 0.35156 0.78125 0.78125 0.78125 0.42969 0 0.78125-0.35156 0.78125-0.78125v-0.73047c0-1.4297 1.1641-2.5938 2.5938-2.5938 1.4297 0 2.5938 1.1641 2.5938 2.5938v0.73047c0 0.42969 0.35156 0.78125 0.78125 0.78125 0.42969 0 0.78125-0.35156 0.78125-0.78125v-0.73047c0-2.293-1.8633-4.1562-4.1562-4.1562z"/>
 <path d="m58.73 38.902c-2.293 0-4.1602 1.8633-4.1602 4.1562v0.73047c0 0.42969 0.35156 0.78125 0.78125 0.78125 0.42969 0 0.78125-0.35156 0.78125-0.78125v-0.73047c0-1.4297 1.1641-2.5938 2.5977-2.5938 1.4297 0 2.5938 1.1641 2.5938 2.5938v0.73047c0 0.42969 0.35156 0.78125 0.78125 0.78125 0.42969 0 0.78125-0.35156 0.78125-0.78125v-0.73047c0.003906-2.293-1.8633-4.1562-4.1562-4.1562z"/>
 <path d="m94.785 19.074c0-0.011719 0.007813-0.019531 0.007813-0.03125l-0.003907-11.473c0-0.23828-0.10937-0.46484-0.29687-0.61328-0.1875-0.14844-0.43359-0.20312-0.66406-0.14844l-11.312 2.6602c-0.35156 0.082031-0.60156 0.39844-0.60156 0.76172v8.4102c-0.61328-0.39062-1.3438-0.60938-2.1719-0.57812-1.1367 0.027344-2.2812 0.48438-3.2148 1.2891-0.93359 0.80078-1.5625 1.8594-1.7617 2.9844-0.21094 1.1797 0.066406 2.2891 0.77734 3.1211 0.69141 0.80859 1.7031 1.2461 2.8516 1.2461h0.11328c1.1367-0.027344 2.2812-0.48438 3.2148-1.2891 0.93359-0.80078 1.5625-1.8594 1.7617-2.9844 0.09375-0.53125 0.078125-1.043-0.019531-1.5273 0-0.011719 0.007812-0.023438 0.007812-0.039063v-10.016l9.75-2.293v7.8125c-1.5195-0.99219-3.7695-0.77734-5.4531 0.66406-0.93359 0.80078-1.5586 1.8633-1.7617 2.9844-0.21094 1.1797 0.066407 2.2891 0.77734 3.1211 0.71094 0.82812 1.75 1.2422 2.8594 1.2422 1.1289 0 2.3281-0.42969 3.3242-1.2812 0.93359-0.80078 1.5586-1.8633 1.7617-2.9844 0.074219-0.35547 0.078125-0.70312 0.054687-1.0391zm-12.832 3.0781c-0.13672 0.76953-0.57812 1.5039-1.2422 2.0742-0.66406 0.57031-1.457 0.89063-2.2383 0.91016-0.67578 0.023437-1.3359-0.23047-1.7422-0.69922-0.40234-0.46875-0.55469-1.1211-0.42969-1.8281 0.13672-0.76953 0.57812-1.5039 1.2422-2.0742 0.66406-0.57031 1.457-0.89062 2.2383-0.91016h0.070312c0.69141 0 1.2812 0.24609 1.668 0.70312 0.40625 0.46484 0.55859 1.1133 0.43359 1.8242zm11.246-2.3164c-0.13672 0.76953-0.57812 1.5039-1.2422 2.0742-1.3203 1.1328-3.1055 1.2266-3.9805 0.21094-0.40234-0.46875-0.55469-1.1211-0.42578-1.8281 0.13672-0.76953 0.57812-1.5039 1.2422-2.0742 0.70703-0.60547 1.5469-0.91797 2.3086-0.91797 0.66406 0 1.2656 0.23438 1.6719 0.70703 0.40234 0.46875 0.55469 1.1211 0.42578 1.8281z"/>
 <path d="m13.969 25.246c0-0.019532 0.011719-0.035156 0.011719-0.054688v-10.016l9.75-2.293v7.8125c-1.5195-0.99219-3.7734-0.77344-5.4531 0.66406-1.9766 1.6953-2.4141 4.4336-0.98438 6.1055 0.71094 0.82812 1.75 1.2422 2.8594 1.2422 1.1289 0 2.3281-0.42969 3.3242-1.2812 1.2734-1.0938 1.8984-2.6172 1.8047-4.0156 0-0.011718 0.007812-0.023437 0.007812-0.039062v-11.477c0-0.23828-0.10937-0.46484-0.29687-0.61328s-0.43359-0.20312-0.66406-0.14844l-11.309 2.6641c-0.35156 0.082031-0.60156 0.39844-0.60156 0.76172v8.418c-0.625-0.39062-1.3672-0.60547-2.1719-0.58594-1.1406 0.027344-2.2812 0.48438-3.2148 1.2891-1.9766 1.6953-2.4141 4.4336-0.98438 6.1055 0.71094 0.82812 1.75 1.2422 2.8594 1.2422 1.1289 0 2.3281-0.42969 3.3242-1.2852 1.4219-1.2227 2.0312-2.9805 1.7383-4.4961zm8.4922 0.99219c-1.3203 1.1328-3.1055 1.2305-3.9805 0.21094-0.87109-1.0195-0.50781-2.7695 0.8125-3.9023 0.70703-0.60547 1.5469-0.91797 2.3125-0.91797 0.66016 0 1.2656 0.23438 1.668 0.70703 0.875 1.0156 0.51172 2.7695-0.8125 3.9023zm-15.23 2.5234c-0.87109-1.0195-0.50781-2.7695 0.8125-3.9023 0.66406-0.56641 1.457-0.89062 2.2383-0.91016h0.070312c0.69141 0 1.2812 0.24609 1.6719 0.70312 0.87109 1.0195 0.50781 2.7695-0.8125 3.9023-1.3203 1.1328-3.1055 1.2266-3.9805 0.20703z"/></svg>
