<svg xmlns="http://www.w3.org/2000/svg" version="1.1" viewBox="-5.0 -10.0 110.0 135.0">
 <path d="m88.207 49.137c0-0.82422-0.33594-1.5742-0.88281-2.1172-0.54297-0.54297-1.293-0.88281-2.1172-0.88281h-31.059c-6.1445 2.7852-12.043 5.168-19.699 5.8555-0.21875 0.019531-0.41016-0.14063-0.42969-0.35938s0.14062-0.41016 0.35938-0.42969c6.8594-0.61328 12.316-2.6289 17.832-5.0664h-37.418c-0.82422 0-1.5742 0.33594-2.1172 0.88281-0.54297 0.54297-0.88281 1.293-0.88281 2.1172v7.582h0.054687v32.527c0 0.35547 0.28906 0.64453 0.64453 0.64453h74.969c0.35547 0 0.64453-0.28906 0.64453-0.64453v-32.527h0.097656v-7.582zm-1.3906 39.461h-11.121v-16.258h2.2305v-14.828h-5.75v14.828h2.2305v16.258h-11.23v-16.258h2.2305v-14.828h-5.75v14.828h2.2305v16.258h-11.23v-16.258h2.2305v-14.828h-5.75v14.828h2.2305v16.258h-11.477v-16.258h2.2305v-14.828h-5.75v14.828h2.2305v16.258h-11.23v-16.258h2.2305v-14.828h-5.75v14.828h2.2305v16.258h-10.918v-31.883h73.676v31.883zm-11.57-51.5c3.1133-0.8125 6.5195-1.5039 10.305-2.0195 0.21875-0.027344 0.41797 0.12109 0.44531 0.33984 0.027344 0.21484-0.125 0.41797-0.33984 0.44531-3.7539 0.50781-7.125 1.1953-10.211 2-3.082 0.80469-5.8789 1.7266-8.4844 2.707-0.20313 0.078126-0.43359-0.027343-0.51172-0.23047s0.027343-0.43359 0.23047-0.51172c2.625-0.98828 5.4492-1.918 8.5664-2.7305zm-36.828-15.441c-0.0625-0.21094 0.058593-0.42969 0.26562-0.49219 0.11719-0.035156 0.23438-0.011718 0.33203 0.046876l4.1055 2.5586c0.1875 0.11719 0.24219 0.35938 0.12891 0.54688-0.11719 0.1875-0.35938 0.24219-0.54688 0.12891l-3.2227-2.0078 3.2422 10.789c0.35156 0.72266 0.28516 1.5586-0.10547 2.3359-0.37891 0.75-1.0703 1.4492-1.9844 1.918-0.91406 0.46875-1.8867 0.61719-2.7148 0.48438-0.85938-0.13672-1.5781-0.57422-1.957-1.2852-0.015626-0.023438-0.027344-0.046876-0.039063-0.074219-0.35156-0.72266-0.28906-1.5625 0.10547-2.3398 0.37891-0.75 1.0703-1.4492 1.9844-1.918h0.003906c0.91406-0.46484 1.8828-0.61719 2.7148-0.48438 0.29688 0.046875 0.57812 0.13281 0.83594 0.25l-3.1445-10.457zm20.754 19.621c-0.375-0.73047-0.3125-1.5859 0.085937-2.375 0.37891-0.75 1.0703-1.4492 1.9844-1.918 0.91406-0.46875 1.8867-0.61719 2.7148-0.48438 0.29688 0.046875 0.57812 0.13281 0.83594 0.25l-1.9609-6.5234-11.766-0.003906 2.2969 7.6367c0.35156 0.72266 0.28516 1.5586-0.10547 2.3359-0.37891 0.75-1.0703 1.4492-1.9844 1.918h-0.003907c-0.91406 0.46484-1.8828 0.61719-2.7148 0.48438-0.875-0.14062-1.6055-0.58984-1.9766-1.3203-0.375-0.73047-0.3125-1.5859 0.085937-2.375 0.37891-0.75 1.0703-1.4492 1.9844-1.918 0.91406-0.46875 1.8867-0.61719 2.7148-0.48438 0.29688 0.046875 0.57812 0.13281 0.83594 0.25l-3.1445-10.457c-0.0625-0.21094 0.058593-0.42969 0.26562-0.49219 0.046876-0.015625 0.097657-0.019531 0.14063-0.015625l12.535 0.003906c0.18359-0.011718 0.35547 0.10156 0.41016 0.28125l3.5469 11.797c0.35156 0.72266 0.28516 1.5586-0.10547 2.3359-0.37891 0.75-1.0703 1.4492-1.9844 1.918h-0.003906c-0.91406 0.46484-1.8828 0.61719-2.7148 0.48438-0.875-0.14062-1.6055-0.58984-1.9766-1.3203zm14.379-11.676c2.9688-0.75391 6.2031-1.3984 9.7852-1.8828 0.21875-0.027344 0.41797 0.125 0.44531 0.33984 0.027344 0.21875-0.125 0.41797-0.33984 0.44531-3.5391 0.48047-6.7461 1.1211-9.6953 1.8672l-0.015625 0.003906c-2.957 0.75-5.6406 1.6055-8.1406 2.5195-0.20703 0.074219-0.43359-0.03125-0.50781-0.23828s0.03125-0.43359 0.23828-0.50781c2.5312-0.92578 5.2422-1.7891 8.2148-2.543zm-10.883 4.4141c-1.4414 0.57812-2.8398 1.1797-4.2031 1.7852-1.418 0.62891-2.707 1.2188-3.9688 1.8008-0.19922 0.089844-0.43359 0.003907-0.52344-0.19531s-0.003906-0.43359 0.19531-0.52344c1.3281-0.60937 2.6758-1.2305 3.9766-1.8047 1.3555-0.60156 2.7539-1.1992 4.2266-1.793 0.20312-0.082031 0.43359 0.015625 0.51562 0.21875s-0.015625 0.43359-0.21875 0.51562zm-30.863 10.254c-0.019532-0.21875 0.14062-0.41016 0.35937-0.42969 2.457-0.21875 4.7383-0.62109 6.9062-1.1562 2.168-0.53516 4.2188-1.207 6.2266-1.9648 0.20312-0.078125 0.43359 0.027344 0.51172 0.23047s-0.027344 0.43359-0.23047 0.51172c-2.0352 0.76953-4.1172 1.4492-6.3164 1.9922s-4.5195 0.94922-7.0273 1.1758c-0.21875 0.019532-0.41016-0.14062-0.42969-0.35938zm46.246-23.445c0.98828-0.16797 2.0117-0.32422 3.0742-0.46875 0.21875-0.027344 0.41797 0.125 0.44531 0.33984 0.027344 0.21484-0.125 0.41797-0.33984 0.44531-1.0391 0.14062-2.0547 0.29688-3.0508 0.46484-0.99609 0.16797-1.957 0.35156-2.8828 0.53906-0.21484 0.042969-0.42188-0.09375-0.46875-0.30859-0.042969-0.21484 0.09375-0.42188 0.30859-0.46875 0.95312-0.19531 1.9219-0.37891 2.9102-0.54688zm-34.332 12.715c-0.078125-0.20312 0.019531-0.43359 0.22656-0.51172 0.85547-0.33594 1.6992-0.6875 2.5391-1.0469 0.83203-0.35938 1.6797-0.73047 2.5352-1.1172 0.19922-0.089843 0.43359 0 0.52344 0.19922 0.089843 0.19922 0 0.43359-0.19922 0.52344-0.84375 0.37891-1.6914 0.75391-2.5508 1.125-0.85156 0.36719-1.707 0.71875-2.5625 1.0547-0.20312 0.078125-0.43359-0.019531-0.51172-0.22656zm-11.363 3.4609c-0.75 0.10547-1.5273 0.19531-2.332 0.26562-0.21875 0.019531-0.41016-0.14062-0.42969-0.35938s0.14062-0.41016 0.35938-0.42969c0.76953-0.070312 1.5352-0.15625 2.293-0.26562 0.74609-0.10547 1.4766-0.22656 2.1953-0.36328 0.21484-0.039062 0.42188 0.10156 0.46094 0.31641 0.039062 0.21484-0.10156 0.42188-0.31641 0.46094-0.73047 0.14062-1.4727 0.26172-2.2305 0.37109zm41.961-22.863c-0.039062-0.21484 0.10156-0.42188 0.31641-0.46094 0.68359-0.125 1.3867-0.24609 2.0977-0.35938 0.71875-0.11328 1.4453-0.22266 2.1836-0.32031 0.21875-0.027344 0.41797 0.125 0.44531 0.33984 0.027344 0.21875-0.125 0.41797-0.33984 0.44531-0.73828 0.10156-1.4609 0.20703-2.1641 0.32031-0.70703 0.11328-1.3984 0.23047-2.082 0.35938-0.21484 0.039062-0.42188-0.10156-0.46094-0.31641zm-30.312 11.027c-0.085937-0.20312 0.007813-0.43359 0.21094-0.51953 1.7969-0.76953 3.5664-1.582 5.3789-2.4141 5.5508-2.5508 11.5-5.2812 19.262-7.2812 0.21094-0.054688 0.42578 0.074219 0.48047 0.28516 0.054687 0.21094-0.074219 0.42578-0.28516 0.48047-7.6875 1.9805-13.605 4.6953-19.129 7.2344-1.832 0.83984-3.6211 1.6641-5.3945 2.4219-0.20312 0.085937-0.43359-0.007813-0.51953-0.21094zm-16.617 4.3828c-0.019531-0.21875 0.14062-0.41016 0.35938-0.42969 2.0078-0.17969 3.9023-0.48047 5.7188-0.87891 1.8125-0.39844 3.5391-0.89062 5.2109-1.4531 0.20703-0.070312 0.43359 0.042969 0.5 0.25 0.070313 0.20703-0.042969 0.43359-0.25 0.5-1.707 0.57422-3.4609 1.0742-5.293 1.4766-1.832 0.40234-3.7578 0.70703-5.8164 0.89062-0.21875 0.019531-0.41016-0.14062-0.42969-0.35938zm41.336-18.93c-0.0625-0.21094 0.058594-0.42969 0.26562-0.49219 0.11719-0.035156 0.23438-0.011719 0.33203 0.046875l4.1055 2.5586c0.1875 0.11719 0.24219 0.35938 0.12891 0.54688-0.11719 0.1875-0.35938 0.24219-0.54688 0.12891l-3.2227-2.0078 3.2422 10.789c0.35156 0.72266 0.28516 1.5586-0.10547 2.3359-0.37891 0.75-1.0703 1.4492-1.9844 1.918s-1.8867 0.61719-2.7148 0.48438c-0.875-0.14062-1.6016-0.58984-1.9766-1.3164l-0.003906-0.003906c-0.375-0.73047-0.3125-1.5859 0.085937-2.375 0.37891-0.75 1.0664-1.4453 1.9805-1.9141l0.007812-0.003906c0.91406-0.46484 1.8828-0.61719 2.7148-0.48438 0.29688 0.046875 0.57812 0.13281 0.83594 0.25l-3.1445-10.457zm-6.2422 14.828c-0.074219-0.20703 0.03125-0.43359 0.23438-0.50781 0.35547-0.13281 0.72266-0.26562 1.0977-0.39844 0.36719-0.12891 0.74219-0.26172 1.1211-0.39062 0.20703-0.070313 0.43359 0.039062 0.50391 0.25 0.070312 0.20703-0.039062 0.43359-0.25 0.50391-0.37109 0.125-0.74219 0.25781-1.1133 0.38672-0.35938 0.12891-0.72266 0.26172-1.0898 0.39453-0.20703 0.074218-0.43359-0.03125-0.50781-0.23438z"/></svg>
