<svg xmlns="http://www.w3.org/2000/svg" version="1.1" viewBox="-5.0 -10.0 110.0 135.0">
 <path d="m71.754 8.6016c-1.4805-0.24609-2.9453 1.1562-2.375 2.6641v15.281c-4.957-2.7617-12.305 0.83594-12.129 6.4766 0.14453 8.8047 13.758 10.109 16.039 1.793 0.125-0.30859 0.26172-0.61328 0.25391-0.97656v-20.41c21.84 8.0117 16.586 39.945-6.8164 40.379-23.414-0.41016-28.711-32.516-6.7148-40.434 2.5664-0.90625 1.2656-4.7969-1.3477-3.9414-10.094 3.4453-16.879 12.934-16.879 23.605 0 6.125 2.2305 11.734 5.9102 16.082l-4.2812 4.2812c-2.668-1.625-5.9375-1.5625-8.0625 0.33203l-25.02 22.125c-3 2.6328-2.4062 7.4961 0.45703 10.207 0 0 2.8945 2.918 2.8945 2.918 2.7109 2.8203 7.5781 3.4688 10.207 0.45703 0 0 22.145-25.039 22.145-25.039 1.875-2.1445 1.9375-5.3945 0.33203-8.0625-0.011719 0 4.2734-4.2734 4.2695-4.2734 15.746 13.68 41.203 2.0234 41.02-19.027 0-11.793-8.375-22.07-19.914-24.43z"/></svg>
