<svg xmlns="http://www.w3.org/2000/svg" version="1.1" viewBox="-5.0 -10.0 110.0 135.0">
 <path d="m60.938 78.125c-4.3125 0-7.8125-3.5-7.8125-7.8125v-43.75c0-0.875-0.6875-1.5625-1.5625-1.5625s-1.5625 0.6875-1.5625 1.5625v40.625c0 4.3125-3.5 7.8125-7.8125 7.8125s-7.8125-3.5-7.8125-7.8125v-28.125c0-0.875-0.6875-1.5625-1.5625-1.5625s-1.5625 0.6875-1.5625 1.5625v18.75c0 4.3125-3.5 7.8125-7.8125 7.8125s-7.8125-3.5-7.8125-7.8125v-15.625c0-0.875-0.6875-1.5625-1.5625-1.5625s-1.5625 0.6875-1.5625 1.5625v14.062c0 1.7188-1.4062 3.125-3.125 3.125s-3.125-1.4062-3.125-3.125v-14.062c0-4.3125 3.5-7.8125 7.8125-7.8125s7.8125 3.5 7.8125 7.8125v15.625c0 0.875 0.6875 1.5625 1.5625 1.5625s1.5625-0.6875 1.5625-1.5625v-18.75c0-4.3125 3.5-7.8125 7.8125-7.8125s7.8125 3.5 7.8125 7.8125v28.125c0 0.875 0.6875 1.5625 1.5625 1.5625s1.5625-0.6875 1.5625-1.5625v-40.625c0-4.3125 3.5-7.8125 7.8125-7.8125s7.8125 3.5 7.8125 7.8125v43.75c0 0.875 0.6875 1.5625 1.5625 1.5625s1.5625-0.6875 1.5625-1.5625v-34.375c0-4.3125 3.5-7.8125 7.8125-7.8125s7.8125 3.5 7.8125 7.8125v28.125c0 0.875 0.6875 1.5625 1.5625 1.5625s1.5625-0.6875 1.5625-1.5625v-21.875c0-4.3125 3.5-7.8125 7.8125-7.8125h1.5625c1.7188 0 3.125 1.4062 3.125 3.125s-1.4062 3.125-3.125 3.125h-1.5625c-0.875 0-1.5625 0.6875-1.5625 1.5625v21.875c0 4.3125-3.5 7.8125-7.8125 7.8125s-7.8125-3.5-7.8125-7.8125v-28.125c0-0.875-0.6875-1.5625-1.5625-1.5625s-1.5625 0.6875-1.5625 1.5625v34.375c0 4.3125-3.5 7.8125-7.8125 7.8125z"/></svg>
