<?xml version="1.0" standalone="no"?>
<!DOCTYPE svg PUBLIC "-//W3C//DTD SVG 20010904//EN"
 "http://www.w3.org/TR/2001/REC-SVG-20010904/DTD/svg10.dtd">
<svg version="1.0" xmlns="http://www.w3.org/2000/svg"
 width="300.000000pt" height="168.000000pt" viewBox="0 0 300.000000 168.000000"
 preserveAspectRatio="xMidYMid meet">

<g transform="translate(0.000000,168.000000) scale(0.100000,-0.100000)"
fill="#000000" stroke="none">
<path d="M0 840 l0 -840 1500 0 1500 0 0 840 0 840 -1500 0 -1500 0 0 -840z
m1060 101 c-11 -22 -50 -29 -50 -11 0 6 12 23 27 38 23 23 28 24 31 10 2 -9
-2 -26 -8 -37z m204 -74 c22 -53 43 -94 47 -90 4 5 24 50 44 101 32 80 40 92
61 92 l24 0 0 -135 c0 -127 -1 -135 -20 -135 -17 0 -19 8 -22 87 l-3 88 -35
-87 c-45 -113 -57 -114 -101 -6 l-34 82 -5 -80 c-5 -73 -7 -79 -27 -82 -23 -3
-23 -2 -23 126 0 71 3 132 7 136 4 4 16 6 28 4 15 -2 29 -26 59 -101z m634 80
c4 -21 -25 -34 -40 -19 -8 8 -8 16 2 27 16 19 34 15 38 -8z m-786 -45 c9 -9 9
-15 0 -24 -17 -17 -15 -68 4 -89 14 -16 14 -20 -1 -48 -8 -17 -19 -31 -23 -32
-4 -1 -35 -2 -69 -4 -52 -2 -65 1 -82 19 -54 58 -54 164 0 184 32 12 157 8
171 -6z m408 -66 c0 -83 6 -96 40 -96 34 0 40 13 40 97 0 61 1 64 23 61 21 -3
22 -7 22 -98 0 -91 -1 -95 -22 -98 -14 -2 -23 2 -23 9 0 10 -3 10 -12 1 -17
-17 -68 -15 -90 5 -15 13 -18 31 -18 100 0 76 2 83 20 83 18 0 20 -7 20 -64z
m286 39 c26 -26 25 -45 -2 -45 -8 0 -17 7 -20 15 -4 9 -19 15 -36 15 -42 0
-34 -31 12 -43 67 -17 89 -58 50 -97 -13 -13 -33 -20 -60 -20 -39 0 -80 26
-80 50 0 15 36 12 50 -5 16 -19 44 -19 59 -1 14 17 -1 31 -47 41 -42 9 -68 45
-53 74 25 47 88 55 127 16z m94 -75 c0 -93 -1 -100 -20 -100 -19 0 -20 7 -20
100 0 93 1 100 20 100 19 0 20 -7 20 -100z m175 75 c14 -13 25 -29 25 -35 0
-16 -36 -12 -50 6 -21 24 -63 14 -74 -18 -15 -43 3 -82 38 -86 19 -2 32 2 38
12 11 20 48 21 48 2 0 -23 -50 -56 -84 -56 -65 0 -105 63 -85 135 18 63 99 86
144 40z"/>
</g>
</svg>
