
<svg width="100" height="100" viewBox="0 0 100 100" fill="none" xmlns="http://www.w3.org/2000/svg">
  <rect width="100" height="100" fill="#D4A936"/>
  <path d="M20.5 34C20.5 31.5 21.7 29.9 24.1 29.1C26.5 28.3 28.5 28.9 30.1 30.9C30.7 31.7 31 32.7 31 33.9V35.4H26.7V33.6C26.7 32.8 26.3 32.4 25.5 32.4C24.7 32.4 24.3 32.8 24.3 33.6C24.3 34.2 24.6 34.7 25.2 35.2C25.8 35.7 26.6 36.1 27.6 36.6C28.6 37 29.5 37.5 30.4 38.1C31.3 38.7 32 39.5 32.5 40.5C33 41.5 33.3 42.6 33.3 43.9C33.3 46.9 32.1 48.8 29.7 49.6C27.3 50.4 25.3 49.8 23.7 47.8C23.1 47 22.8 46 22.8 44.8V42.9H27.1V45C27.1 45.8 27.5 46.2 28.3 46.2C29.1 46.2 29.5 45.8 29.5 45C29.5 44.4 29.2 43.9 28.6 43.4C28 42.9 27.2 42.5 26.2 42C25.2 41.6 24.3 41.1 23.4 40.5C22.5 39.9 21.8 39.1 21.3 38.1C20.8 37.1 20.5 35.7 20.5 34Z" fill="#222222"/>
  <path d="M35 30H46.7V33.8H41.1V37.6H45.8V41.4H41.1V45.7H46.9V49.5H35V30Z" fill="#222222"/>
  <path d="M55.2 30H48V33.8H50.1V49.5H53.1V33.8H55.2V30Z" fill="#222222"/>
  <path d="M64.4 36.5V38.4H70V44.9C70 46.1 69.7 47.1 69.1 47.9C67.5 49.9 65.5 50.5 63.1 49.7C60.7 48.9 59.5 47 59.5 44V35.5C59.5 33.9 60 32.6 61 31.8C62 31 63.3 30.7 64.9 31C66.5 31.3 67.6 32.2 68.2 33.6C68.6 34.4 68.8 35.4 68.8 36.6V37.9H64.5V36.1C64.5 35.3 64.1 34.9 63.3 34.9C62.5 34.9 62.1 35.3 62.1 36.1V43.9C62.1 44.7 62.5 45.1 63.3 45.1C64.1 45.1 64.5 44.7 64.5 43.9V42.2H62.3V38.4H64.4V36.5Z" fill="#222222"/>
  <path d="M19.1 70H10V53.6H13.4V66.5H19.1V70Z" fill="#222222"/>
  <path d="M28.6 53.6H25.2V70H28.6V53.6Z" fill="#222222"/>
  <path d="M36.3 53.6H33V70H36.3V53.6Z" fill="#222222"/>
  <path d="M48.2 53.6H38.3V57.1H41.5V70H44.9V57.1H48.2V53.6Z" fill="#222222"/>
  <path d="M57.7 60.1V62H63.3V68.5C63.3 69.7 63 70.7 62.4 71.5C60.8 73.5 58.8 74.1 56.4 73.3C54 72.5 52.8 70.6 52.8 67.6V59.1C52.8 57.5 53.3 56.2 54.3 55.4C55.3 54.6 56.6 54.3 58.2 54.6C59.8 54.9 60.9 55.8 61.5 57.2C61.9 58 62.1 59 62.1 60.2V61.5H57.8V59.7C57.8 58.9 57.4 58.5 56.6 58.5C55.8 58.5 55.4 58.9 55.4 59.7V67.5C55.4 68.3 55.8 68.7 56.6 68.7C57.4 68.7 57.8 68.3 57.8 67.5V65.8H55.6V62H57.7V60.1Z" fill="#222222"/>
  <path d="M75.2 53.6H65.3V57.1H68.5V70H71.9V57.1H75.2V53.6Z" fill="#222222"/>
  <path d="M89.3 70H85.8L84.8 66.5H80.8L79.9 70H76.5L80.5 53.6H85.4L89.3 70ZM84.2 63.3L82.8 57.4L81.5 63.3H84.2Z" fill="#222222"/>
  <path d="M90.7 57.9C90.7 55.4 91.9 53.8 94.3 53C96.7 52.2 98.7 52.8 100.3 54.8C100.9 55.6 101.2 56.6 101.2 57.8V59.3H96.9V57.5C96.9 56.7 96.5 56.3 95.7 56.3C94.9 56.3 94.5 56.7 94.5 57.5C94.5 58.1 94.8 58.6 95.4 59.1C96 59.6 96.8 60 97.8 60.5C98.8 60.9 99.7 61.4 100.6 62C101.5 62.6 102.2 63.4 102.7 64.4C103.2 65.4 103.5 66.5 103.5 67.8C103.5 70.8 102.3 72.7 99.9 73.5C97.5 74.3 95.5 73.7 93.9 71.7C93.3 70.9 93 69.9 93 68.7V66.8H97.3V68.9C97.3 69.7 97.7 70.1 98.5 70.1C99.3 70.1 99.7 69.7 99.7 68.9C99.7 68.3 99.4 67.8 98.8 67.3C98.2 66.8 97.4 66.4 96.4 65.9C95.4 65.5 94.5 65 93.6 64.4C92.7 63.8 92 63 91.5 62C91 60.9 90.7 59.6 90.7 57.9Z" fill="#222222"/>
  <path d="M83.5 70.5C85.3 70.5 86.3 71.6 86.3 73.5C86.3 75.4 85.3 76.5 83.5 76.5C81.7 76.5 80.7 75.4 80.7 73.5C80.7 71.6 81.7 70.5 83.5 70.5Z" fill="#222222"/>
</svg>
