
<svg width="100" height="100" viewBox="0 0 100 100" fill="none" xmlns="http://www.w3.org/2000/svg">
  <path d="M50 0C22.4 0 0 22.4 0 50C0 77.6 22.4 100 50 100C77.6 100 100 77.6 100 50C100 22.4 77.6 0 50 0Z" fill="#A67C00"/>
  <path d="M70 40C70 35.6 66.4 32 62 32H38C33.6 32 30 35.6 30 40V60C30 64.4 33.6 68 38 68H62C66.4 68 70 64.4 70 60V40Z" fill="white"/>
  <path d="M55 46.7V53.3C55 54.3 54.1 55 53.1 54.8C52.5 54.6 52 54.1 51.8 53.5L50 47.8L42.5 50.3C41.7 50.6 41 49.9 41.3 49.1L45.3 38.1C45.6 37.3 46.6 37 47.4 37.3L54.9 40.3C57.8 41.3 59.2 44.8 57.9 47.6C57.2 49.1 55.8 50.1 54.2 50.3C54.7 49.3 55 48.1 55 46.7Z" fill="#A67C00"/>
</svg>
