<?xml version="1.0" standalone="no"?>
<!DOCTYPE svg PUBLIC "-//W3C//DTD SVG 20010904//EN"
 "http://www.w3.org/TR/2001/REC-SVG-20010904/DTD/svg10.dtd">
<svg version="1.0" xmlns="http://www.w3.org/2000/svg"
 width="2560.000000pt" height="1440.000000pt" viewBox="0 0 2560.000000 1440.000000"
 preserveAspectRatio="xMidYMid meet">

<g transform="translate(0.000000,1440.000000) scale(0.100000,-0.100000)"
fill="#000000" stroke="none">
<path d="M12512 7670 c0 -14 2 -19 5 -12 2 6 2 18 0 25 -3 6 -5 1 -5 -13z"/>
<path d="M13057 7674 c-12 -12 -7 -247 6 -283 19 -53 56 -75 137 -79 l70 -4 0
61 0 61 -45 0 c-41 0 -45 2 -45 25 0 23 4 25 45 25 l45 0 0 60 0 60 -45 0 -45
0 0 38 0 37 -58 3 c-32 1 -61 -1 -65 -4z"/>
<path d="M12502 7620 c0 -14 2 -19 5 -12 2 6 2 18 0 25 -3 6 -5 1 -5 -13z"/>
<path d="M11361 7592 c-54 -27 -76 -64 -76 -130 0 -110 57 -152 204 -152 l91
0 0 93 c0 77 -4 98 -23 131 -40 70 -125 95 -196 58z m87 -135 c4 -30 -5 -34
-33 -13 -17 12 -17 16 -6 30 19 23 35 15 39 -17z"/>
<path d="M11711 7592 c-108 -54 -105 -209 4 -262 32 -15 62 -20 128 -20 l87 0
0 60 c0 43 -4 62 -14 66 -12 5 -12 9 0 32 14 27 12 48 -8 89 -25 50 -131 69
-197 35z m94 -127 c0 -22 -31 -33 -48 -16 -7 7 -6 15 3 26 17 21 45 15 45 -10z"/>
<path d="M12051 7592 c-55 -30 -71 -71 -71 -184 l0 -98 65 0 65 0 0 86 c0 76
2 85 18 82 14 -3 17 -16 20 -86 l3 -82 59 0 60 0 0 80 c0 63 3 82 15 87 23 8
26 2 30 -73 2 -38 4 -75 4 -81 1 -9 20 -13 61 -13 l60 0 0 98 c0 73 -4 106
-18 131 -31 62 -122 89 -185 56 -26 -13 -31 -13 -50 0 -29 20 -95 19 -136 -3z"/>
<path d="M13751 7593 c-57 -28 -71 -63 -71 -180 l0 -103 60 0 60 0 0 78 c0 82
12 111 37 91 9 -8 13 -37 13 -90 l0 -79 66 0 67 0 -5 99 c-4 73 -10 108 -24
132 -37 64 -131 87 -203 52z"/>
<path d="M14101 7593 c-74 -39 -99 -119 -62 -197 32 -64 80 -86 194 -86 l87 0
0 60 c0 47 -3 60 -15 60 -18 0 -18 1 -2 33 19 37 10 81 -24 113 -38 36 -126
45 -178 17z m94 -128 c0 -16 9 -21 45 -26 l45 -6 -56 -1 c-67 -2 -101 16 -80
42 18 22 46 16 46 -9z"/>
<path d="M10983 7580 c-52 -31 -59 -134 -10 -143 15 -3 12 -5 -11 -6 l-33 -1
3 -57 3 -58 118 0 119 0 29 33 c33 36 37 76 13 110 -12 17 -25 22 -63 22 -43
0 -48 -2 -47 -22 1 -29 -38 -38 -48 -11 -12 29 21 43 101 43 l73 0 0 55 0 55
-107 0 c-89 0 -114 -3 -140 -20z"/>
<path d="M12640 7593 c-27 -10 -59 -45 -65 -73 -8 -38 9 -78 37 -83 17 -3 15
-5 -9 -6 l-33 -1 0 -60 0 -60 93 0 c150 0 197 24 197 98 0 57 -14 72 -70 72
-46 0 -50 -2 -47 -22 1 -17 -4 -24 -21 -26 -27 -4 -40 22 -22 43 9 11 34 15
91 15 l79 0 0 55 0 55 -107 -1 c-60 0 -115 -3 -123 -6z"/>
<path d="M13320 7515 c0 -136 35 -192 131 -210 51 -9 122 23 149 67 16 27 20
50 20 131 l0 97 -60 0 -60 0 0 -74 c0 -52 -4 -77 -15 -86 -26 -21 -35 0 -35
81 l0 79 -65 0 -65 0 0 -85z"/>
<path d="M14434 7590 c-72 -29 -85 -137 -19 -153 13 -3 8 -5 -12 -6 l-33 -1 0
-60 0 -60 93 0 c118 0 162 12 182 50 18 35 19 60 3 95 -10 22 -17 25 -60 25
-45 0 -48 -2 -48 -26 0 -21 -4 -25 -22 -22 -26 3 -37 36 -16 49 7 5 46 9 86 9
l72 0 0 55 0 55 -102 -1 c-57 0 -113 -4 -124 -9z"/>
<path d="M12491 7574 c0 -11 3 -14 6 -6 3 7 2 16 -1 19 -3 4 -6 -2 -5 -13z"/>
</g>
</svg>
