<?xml version="1.0" standalone="no"?>
<!DOCTYPE svg PUBLIC "-//W3C//DTD SVG 20010904//EN"
 "http://www.w3.org/TR/2001/REC-SVG-20010904/DTD/svg10.dtd">
<svg version="1.0" xmlns="http://www.w3.org/2000/svg"
 width="1540.000000pt" height="792.000000pt" viewBox="0 0 1540.000000 792.000000"
 preserveAspectRatio="xMidYMid meet">

<g transform="translate(0.000000,792.000000) scale(0.100000,-0.100000)"
fill="#000000" stroke="none">
<path d="M0 3960 l0 -3960 7700 0 7700 0 0 3960 0 3960 -2233 0 c-1329 0
-2237 -4 -2243 -9 -5 -5 -124 -46 -264 -91 -140 -45 -336 -108 -435 -140 -99
-32 -358 -116 -575 -185 -217 -70 -493 -158 -613 -197 -120 -39 -220 -69 -221
-67 -6 7 -97 321 -94 324 6 5 154 54 618 200 256 81 472 151 480 156 9 5 -94
9 -247 9 l-261 0 -112 -35 c-62 -19 -115 -33 -120 -30 -4 2 -10 18 -13 35 l-6
30 -81 0 c-44 0 -80 -4 -80 -9 0 -5 7 -28 15 -51 8 -23 15 -46 15 -51 0 -8
-289 -104 -294 -98 -2 2 -17 49 -33 104 l-30 100 -77 3 c-68 3 -76 1 -76 -15
0 -15 37 -145 65 -230 3 -8 -46 -28 -139 -58 -79 -25 -148 -45 -153 -45 -6 0
-22 42 -37 93 -15 50 -38 124 -51 163 l-23 71 27 10 c19 8 -46 11 -245 12
l-271 1 -294 -91 c-162 -50 -385 -119 -497 -154 -112 -36 -215 -66 -229 -67
-29 -3 -25 -12 -94 210 l-32 102 -3223 0 -3224 0 0 -3960z m7982 3738 c25 -84
48 -159 50 -167 4 -18 -294 -115 -303 -97 -9 15 -100 319 -96 322 3 2 290 93
298 93 3 1 26 -68 51 -151z m-452 -159 c27 -90 48 -164 47 -165 -6 -6 -869
-275 -872 -272 -11 11 -104 323 -97 329 4 4 102 36 217 72 116 36 309 97 430
135 121 38 221 68 223 67 2 -2 25 -76 52 -166z m1070 -169 c22 -73 42 -147 46
-164 l5 -32 -291 -92 c-160 -51 -295 -90 -299 -87 -4 2 -18 39 -30 82 -13 43
-34 113 -48 156 -14 43 -23 81 -20 83 6 6 591 192 594 190 1 -1 20 -62 43
-136z m-4738 104 c135 -40 274 -151 336 -271 62 -117 84 -211 89 -376 12 -325
-63 -571 -364 -1201 -170 -357 -240 -526 -350 -851 -147 -434 -159 -513 -172
-1120 -8 -355 -13 -432 -34 -575 -56 -370 -131 -606 -248 -776 -45 -67 -152
-172 -222 -217 -162 -107 -294 -155 -732 -267 -490 -125 -712 -225 -885 -399
-124 -125 -180 -256 -180 -421 0 -153 49 -279 148 -378 88 -88 168 -117 279
-100 108 16 212 75 463 258 240 177 335 228 493 265 143 33 235 39 388 24 125
-12 133 -12 167 6 50 28 71 61 83 135 25 141 103 238 254 310 178 87 408 119
708 101 288 -18 411 -15 503 12 44 13 104 40 137 61 88 59 126 106 293 361
213 327 488 497 804 497 224 0 404 -70 588 -230 175 -152 250 -346 272 -707
15 -244 28 -357 55 -460 61 -234 178 -387 334 -435 166 -52 304 1 332 127 12
50 11 65 -8 137 -11 45 -20 82 -19 83 1 2 16 6 33 9 29 6 30 5 46 -53 23 -80
22 -196 -2 -248 -22 -50 -86 -108 -137 -126 -62 -22 -207 -17 -279 9 -162 60
-280 200 -348 418 -40 125 -55 228 -71 481 -17 252 -33 350 -76 460 -79 206
-287 380 -530 445 -101 27 -268 29 -365 4 -239 -63 -412 -206 -614 -511 -129
-194 -157 -228 -238 -294 -72 -57 -160 -94 -266 -111 -77 -13 -102 -12 -532 6
-395 17 -689 -85 -781 -271 -21 -44 -26 -70 -27 -127 0 -122 36 -177 170 -264
78 -50 125 -85 371 -277 206 -161 348 -205 629 -194 119 4 172 11 268 36 134
33 307 91 434 145 47 20 85 35 86 33 1 -1 8 -13 15 -26 18 -35 33 -27 -230
-126 -419 -157 -770 -174 -1035 -51 -88 41 -169 97 -336 232 -72 58 -161 125
-198 149 -219 141 -432 203 -660 192 -258 -13 -376 -61 -651 -266 -287 -214
-425 -281 -580 -281 -119 0 -222 52 -302 154 -111 140 -155 315 -124 494 40
234 198 421 471 560 166 84 286 125 645 217 399 103 552 158 692 251 220 146
338 361 417 755 44 219 60 406 71 844 13 503 29 618 130 930 133 411 211 603
450 1100 211 440 296 710 307 975 10 246 -47 422 -176 550 -188 187 -467 198
-644 25 -46 -45 -56 -51 -77 -43 -36 13 -36 14 3 62 115 140 333 197 529 140z
m3932 -241 c4 -16 25 -88 48 -161 22 -73 38 -135 35 -138 -10 -11 -307 -102
-310 -95 -11 22 -100 321 -96 324 6 6 292 95 305 96 7 1 15 -11 18 -26z
m-5509 -87 c50 -13 200 -55 335 -91 135 -37 247 -68 249 -70 2 -2 1 -15 -3
-29 -6 -22 -9 -24 -39 -15 -17 5 -176 48 -352 95 -176 48 -321 87 -322 88 -1
1 1 14 4 29 4 20 10 26 22 23 9 -3 57 -16 106 -30z m5025 -59 c0 -7 20 -77 45
-157 25 -80 45 -148 45 -152 0 -4 -10 -10 -22 -13 -13 -4 -135 -43 -271 -87
-137 -44 -250 -78 -251 -76 -3 3 -69 217 -89 290 -6 21 -9 39 -6 42 9 9 534
173 542 169 4 -2 7 -10 7 -16z m-5847 -31 c298 -80 778 -209 1022 -276 61 -16
209 -56 330 -89 121 -33 324 -87 450 -121 127 -34 234 -65 238 -69 4 -5 -4
-50 -18 -102 -95 -353 -102 -374 -118 -377 -13 -3 -17 8 -19 60 -3 56 -5 63
-25 66 -17 2 -29 -7 -50 -40 -15 -24 -28 -45 -30 -47 -1 -2 -13 -1 -27 3 l-25
6 2 112 c2 99 0 113 -15 116 -19 4 -53 -57 -83 -146 -13 -40 -21 -52 -33 -48
-10 2 -27 7 -38 10 l-22 7 29 132 c36 166 46 271 29 282 -24 15 -56 -51 -158
-330 -14 -40 -22 -49 -38 -47 -10 2 -21 5 -23 7 -1 2 4 48 12 102 32 201 32
233 1 233 -16 0 -51 -70 -105 -213 l-33 -88 -30 7 c-17 3 -32 7 -34 9 -1 1 2
22 7 46 20 94 22 153 7 174 -12 16 -16 17 -30 6 -15 -13 -86 -153 -86 -171 0
-15 -18 -21 -45 -14 -22 6 -25 11 -25 54 0 61 -7 80 -31 80 -13 0 -31 -18 -50
-49 -28 -44 -33 -48 -57 -42 -24 7 -27 13 -30 57 -4 75 -10 94 -31 94 -22 0
-52 -34 -71 -80 -10 -25 -18 -30 -34 -26 -12 3 -27 6 -33 6 -9 0 -13 19 -13
64 0 78 -17 99 -50 66 -12 -12 -28 -37 -36 -56 -10 -24 -21 -34 -37 -34 -44 0
-50 13 -43 87 5 52 3 73 -8 88 -12 17 -16 18 -32 5 -9 -8 -30 -43 -45 -77
l-28 -61 -33 10 -33 10 23 140 c13 77 21 151 18 164 -16 60 -55 3 -121 -172
-34 -94 -39 -100 -61 -96 -13 2 -26 7 -28 11 -2 3 5 60 15 126 23 147 23 164
3 172 -25 9 -43 -17 -94 -143 -27 -66 -53 -119 -59 -118 -6 1 -20 2 -31 3 -17
1 -19 10 -22 68 -4 85 -23 94 -67 33 -16 -23 -31 -46 -33 -52 -3 -7 -17 -8
-40 -4 -33 6 -36 10 -42 49 -3 23 -6 52 -6 65 0 18 63 262 96 375 4 11 12 16
20 13 8 -3 56 -17 107 -30z m154 -353 c-3 -38 -11 -98 -17 -134 l-12 -66 -38
9 -38 10 24 61 c50 126 76 187 82 187 3 0 2 -30 -1 -67z m181 -25 c-8 -71 -24
-165 -35 -201 -4 -15 -11 -17 -36 -11 -18 3 -33 7 -35 9 -7 6 101 275 111 275
2 0 0 -33 -5 -72z m-388 -72 c0 -51 -1 -53 -25 -48 -33 6 -39 16 -24 44 12 23
39 58 46 58 1 0 3 -24 3 -54z m-184 -4 c-11 -10 -15 4 -8 28 l7 25 3 -23 c2
-13 1 -26 -2 -30z m4 -82 c0 -80 44 -91 81 -19 21 42 25 44 64 29 24 -9 25
-13 23 -79 -5 -115 36 -119 83 -7 l21 53 40 -11 c37 -10 39 -12 33 -41 -3 -16
-9 -65 -12 -108 l-6 -79 24 4 c20 2 31 19 63 94 l39 92 30 -9 c16 -4 32 -10
34 -13 2 -2 -3 -53 -12 -112 -15 -104 -14 -154 4 -154 18 0 44 43 84 137 l42
99 32 -8 c32 -8 32 -9 26 -57 -13 -112 30 -137 79 -46 15 28 29 54 31 59 2 5
20 3 40 -3 36 -12 37 -14 37 -61 0 -32 5 -50 14 -53 19 -8 51 17 65 51 12 28
14 29 51 19 37 -10 39 -13 42 -55 4 -61 30 -78 61 -41 12 14 27 34 32 43 9 14
15 14 48 4 34 -10 37 -15 37 -47 0 -70 35 -80 68 -21 15 26 21 29 47 24 17 -3
34 -10 38 -14 5 -4 4 -40 -2 -78 -13 -85 -14 -169 -2 -176 16 -10 48 39 81
124 18 47 36 89 40 93 4 5 22 4 41 0 l33 -9 1 -69 c0 -58 3 -70 18 -73 13 -3
24 11 44 55 14 32 27 59 28 60 5 8 75 -20 75 -30 0 -7 -11 -65 -25 -131 -14
-65 -28 -152 -32 -193 -6 -69 -5 -75 12 -72 29 6 51 56 160 366 3 9 13 9 39 1
33 -10 36 -15 36 -48 0 -23 7 -43 16 -51 15 -12 21 -9 49 24 31 35 36 37 67
29 30 -7 33 -12 36 -52 2 -25 8 -50 13 -56 5 -7 0 -42 -15 -95 -13 -46 -38
-138 -55 -204 -18 -66 -48 -176 -67 -245 -33 -122 -157 -579 -208 -770 -14
-52 -50 -186 -80 -298 -31 -111 -56 -210 -56 -220 -1 -40 -19 21 -68 228 -28
118 -81 341 -117 495 -37 154 -68 281 -70 283 -2 2 -159 -105 -349 -237 -205
-142 -348 -235 -351 -228 -2 6 -40 232 -84 501 -44 268 -82 490 -84 493 -5 4
-901 -592 -940 -625 -9 -8 -19 -13 -22 -10 -5 5 35 163 119 468 19 69 49 179
67 245 17 66 44 165 59 220 15 55 42 154 60 220 18 66 47 174 65 240 18 66 38
141 45 167 16 62 40 55 40 -12z m67 32 c9 -6 8 -16 -7 -40 -26 -43 -40 -40
-40 8 0 41 16 52 47 32z m643 -54 c0 -35 -4 -68 -8 -75 -9 -14 -52 -6 -52 9 0
12 51 128 56 128 2 0 4 -28 4 -62z m-473 4 c9 -6 6 -21 -12 -60 -13 -29 -27
-52 -30 -52 -3 0 -5 27 -5 60 0 51 3 60 18 60 9 0 22 -4 29 -8z m1550 -202
l-34 -165 -33 3 c-19 1 -36 5 -39 7 -5 5 80 243 113 315 32 71 30 25 -7 -160z
m-1365 139 c-8 -33 -65 -160 -70 -155 -3 3 1 46 8 95 l13 89 26 -8 c15 -4 25
-13 23 -21z m458 -23 c0 -51 -1 -53 -25 -48 -14 2 -28 8 -31 13 -6 11 36 89
48 89 4 0 8 -24 8 -54z m745 7 c-9 -65 -36 -225 -40 -240 -3 -9 -12 -10 -37
-1 -18 6 -34 12 -36 13 -1 1 16 50 38 110 64 169 87 205 75 118z m-565 -55 l0
-50 -32 6 c-42 8 -42 9 -22 48 37 73 54 72 54 -4z m-452 37 c4 -4 -43 -126
-68 -174 -12 -24 -24 -41 -26 -38 -5 5 25 207 33 220 3 6 51 0 61 -8z m802
-115 l-11 -68 -31 9 c-17 4 -32 10 -34 12 -2 2 15 44 38 93 40 84 43 87 46 55
2 -18 -2 -64 -8 -101z m-642 71 c11 -7 8 -19 -13 -61 -33 -65 -50 -56 -40 19
7 52 21 63 53 42z m462 -47 c0 -46 -4 -48 -47 -36 l-23 7 26 43 c14 23 30 40
35 37 5 -4 9 -26 9 -51z m-280 1 c0 -14 -32 -65 -40 -65 -6 0 -10 16 -10 35 0
31 3 35 25 35 14 0 25 -2 25 -5z m161 -45 c14 0 11 -23 -7 -49 -20 -27 -34
-14 -34 33 0 22 4 27 16 22 9 -3 20 -6 25 -6z m834 -95 l-8 -97 -30 6 c-17 3
-32 8 -34 9 -4 5 30 103 53 149 9 21 19 36 22 34 2 -3 1 -48 -3 -101z m-666
46 c10 -7 11 -13 2 -30 -17 -30 -31 -26 -31 9 0 31 6 36 29 21z m172 -124
c-15 -40 -35 -85 -44 -102 l-16 -30 -1 34 c0 32 17 151 25 178 3 9 12 10 33 2
l30 -10 -27 -72z m183 11 c-3 -13 -15 -39 -25 -58 -17 -34 -18 -34 -19 -9 0
55 12 89 32 89 15 0 18 -5 12 -22z m466 -27 c0 -46 -1 -48 -25 -43 -14 2 -28
8 -30 12 -7 11 34 80 46 80 5 0 9 -22 9 -49z m-276 -12 c6 -5 -10 -62 -39
-141 -53 -148 -84 -215 -84 -183 -1 20 55 308 64 333 5 14 41 8 59 -9z m159
-37 c16 -7 16 -9 2 -30 -22 -30 -35 -28 -35 8 0 31 3 33 33 22z m149 -83 l-10
-34 -1 45 c-1 31 2 41 10 33 7 -7 7 -21 1 -44z m5028 -1218 c119 -40 212 -94
296 -174 116 -108 197 -242 232 -384 l17 -70 105 4 c90 5 114 2 170 -17 115
-39 213 -118 272 -220 75 -130 78 -313 6 -455 -29 -55 -122 -150 -182 -184
-109 -62 -96 -61 -816 -61 l-657 0 -27 26 -26 27 0 722 0 722 23 21 c55 52
196 83 362 78 115 -3 141 -7 225 -35z m-698 -116 c11 -43 13 -1353 1 -1390
-12 -37 -37 -44 -55 -13 -17 30 -15 1386 2 1419 16 28 42 20 52 -16z m-202
-80 c14 -38 15 -1282 1 -1318 -15 -38 -42 -32 -53 11 -11 41 -6 1303 5 1320
13 20 37 14 47 -13z m-459 -96 c13 -25 19 -1190 6 -1227 -5 -14 -15 -22 -25
-20 -13 2 -19 19 -24 73 -14 141 -8 1133 7 1183 6 19 23 14 36 -9z m155 -25
c10 -37 10 -1164 1 -1197 -12 -42 -40 -32 -49 18 -17 88 -9 1167 9 1198 10 16
33 5 39 -19z m-306 1 c9 -11 12 -154 13 -592 1 -318 -1 -590 -6 -605 -4 -16
-14 -28 -22 -28 -8 0 -18 12 -22 28 -10 33 -9 1147 1 1185 7 30 18 34 36 12z
m463 -195 c9 -218 4 -987 -8 -1012 -11 -27 -34 -22 -46 10 -15 36 -13 1129 1
1167 7 17 16 25 28 23 15 -3 18 -24 25 -188z m-608 118 c10 -31 12 -1099 2
-1125 -5 -13 -14 -23 -22 -23 -8 0 -17 10 -22 23 -10 26 -8 1094 2 1125 3 12
12 22 20 22 8 0 17 -10 20 -22z m-150 -130 c14 -59 23 -616 14 -803 -10 -191
-17 -231 -38 -210 -16 17 -26 401 -18 700 7 298 10 335 27 335 5 0 12 -10 15
-22z m-278 -384 c9 -140 9 -244 1 -399 -10 -196 -17 -240 -35 -221 -14 14 -24
314 -18 541 7 242 10 278 29 272 7 -2 15 -71 23 -193z m-144 -24 c7 -130 7
-250 0 -380 -10 -188 -23 -247 -40 -184 -10 38 -10 710 0 748 17 63 30 4 40
-184z m283 123 c11 -87 8 -624 -3 -681 -4 -24 -12 -44 -18 -43 -18 1 -25 101
-27 361 -2 289 7 430 27 430 9 0 16 -22 21 -67z m-433 -55 c17 -196 18 -286 7
-433 -6 -88 -14 -162 -16 -164 -26 -26 -43 272 -28 495 12 186 11 174 23 174
4 0 11 -33 14 -72z m-128 -263 c0 -139 -3 -197 -12 -206 -22 -22 -28 20 -28
206 0 186 6 228 28 206 8 -8 12 -68 12 -206z m-4381 -305 c60 -29 91 -80 91
-150 0 -70 -31 -121 -91 -150 -50 -25 -97 -25 -150 -1 -63 29 -89 72 -89 151
0 79 26 122 89 151 53 24 100 24 150 -1z m6261 -784 c65 -31 96 -65 137 -151
32 -68 33 -74 33 -195 0 -119 -1 -128 -32 -192 -42 -89 -97 -143 -168 -163
-51 -15 -59 -15 -111 0 -101 29 -171 123 -201 271 -13 65 -14 92 -5 150 28
178 134 303 257 304 22 0 63 -11 90 -24z m-404 -601 c24 -26 62 -58 87 -72 32
-19 41 -30 36 -42 -50 -120 -76 -288 -68 -440 6 -109 5 -123 -11 -141 -41 -45
-91 -15 -124 76 -61 161 -73 406 -32 614 12 63 25 118 28 123 3 5 13 -9 23
-31 10 -23 38 -62 61 -87z m-1358 -86 c44 -12 101 -59 124 -103 29 -53 22
-159 -14 -236 -67 -146 -222 -257 -372 -268 -210 -15 -312 159 -212 362 88
179 306 292 474 245z m-136 -706 c39 3 81 11 93 17 18 10 21 10 14 -2 -102
-172 -355 -392 -532 -464 -90 -36 -135 -41 -161 -15 -12 12 -21 27 -21 35 0
23 39 65 113 120 101 74 169 146 239 252 l60 91 61 -19 c47 -15 79 -19 134
-15z"/>
<path d="M7629 2477 c-48 -32 -93 -95 -113 -161 -14 -44 -17 -81 -14 -165 3
-101 6 -113 39 -177 57 -112 150 -160 228 -119 151 77 198 375 89 548 -60 94
-154 125 -229 74z"/>
<path d="M5810 1800 c-164 -59 -295 -217 -295 -357 0 -104 59 -157 171 -156
172 2 377 183 400 354 19 140 -115 216 -276 159z"/>
</g>
</svg>
