<?xml version="1.0" standalone="no"?>
<!DOCTYPE svg PUBLIC "-//W3C//DTD SVG 20010904//EN"
 "http://www.w3.org/TR/2001/REC-SVG-20010904/DTD/svg10.dtd">
<svg version="1.0" xmlns="http://www.w3.org/2000/svg"
 width="1440.000000pt" height="733.000000pt" viewBox="0 0 1440.000000 733.000000"
 preserveAspectRatio="xMidYMid meet">

<g transform="translate(0.000000,733.000000) scale(0.100000,-0.100000)"
fill="#000000" stroke="none">
<path d="M5600 4274 c-207 -44 -387 -207 -462 -417 -19 -52 -22 -83 -22 -197
0 -114 3 -145 22 -197 57 -159 173 -293 315 -363 187 -91 377 -92 562 -1 338
167 452 602 239 914 -145 211 -403 315 -654 261z m330 -352 c171 -46 253 -89
258 -135 7 -55 -37 -76 -95 -46 -116 60 -295 99 -450 99 -70 0 -214 -19 -268
-35 -25 -8 -75 29 -75 54 0 31 43 59 115 75 105 23 413 16 515 -12z m-146
-197 c146 -26 304 -90 320 -131 8 -22 -19 -64 -42 -64 -9 0 -30 8 -47 18 -136
82 -381 115 -559 76 -84 -19 -106 -12 -106 32 0 36 22 49 101 63 41 7 79 15
84 16 28 9 173 3 249 -10z m45 -215 c84 -23 180 -68 195 -92 12 -20 -8 -48
-34 -48 -10 0 -41 12 -69 26 -28 14 -77 32 -109 41 -72 20 -253 23 -345 4 -53
-11 -70 -11 -82 -1 -17 14 -19 29 -7 48 27 42 324 56 451 22z"/>
<path d="M8321 3974 c-12 -15 -21 -34 -21 -44 0 -10 9 -29 21 -44 40 -50 119
-24 119 40 0 69 -78 101 -119 48z"/>
<path d="M8582 3955 c-30 -22 -52 -67 -52 -109 0 -30 -3 -35 -27 -38 -26 -3
-28 -7 -31 -50 -3 -44 -2 -47 25 -50 l28 -3 3 -167 2 -168 55 0 55 0 0 170 0
170 43 0 43 0 67 -158 c37 -87 67 -165 67 -174 0 -27 -27 -41 -69 -35 -36 4
-39 3 -55 -29 -9 -19 -16 -39 -16 -43 0 -14 59 -31 107 -31 87 0 119 39 191
235 17 44 51 133 76 197 25 65 46 122 46 128 0 6 -24 10 -55 10 -64 0 -54 15
-117 -168 -23 -67 -45 -119 -48 -115 -4 5 -31 70 -60 146 l-53 137 -83 0 c-73
0 -84 2 -84 18 0 34 17 45 65 44 l46 -2 -3 47 -3 48 -70 3 c-51 2 -76 -2 -93
-13z"/>
<path d="M6674 3932 c-96 -45 -128 -150 -74 -239 24 -40 54 -56 167 -88 101
-29 129 -50 119 -89 -7 -28 -51 -56 -88 -56 -40 0 -94 19 -138 49 l-43 29 -35
-41 -34 -41 24 -20 c43 -35 129 -68 192 -73 142 -12 236 58 236 174 0 92 -45
130 -219 185 -80 25 -98 41 -88 80 14 54 99 61 188 14 l47 -24 26 37 c14 20
26 42 26 47 0 6 -24 24 -52 39 -70 38 -191 46 -254 17z"/>
<path d="M8050 3866 c0 -52 -1 -55 -27 -58 -26 -3 -28 -7 -31 -50 -3 -44 -2
-47 25 -50 l28 -3 5 -141 c4 -101 9 -146 19 -158 36 -43 106 -57 170 -35 29
10 31 14 31 59 l0 49 -31 -11 c-22 -7 -37 -7 -55 1 -23 10 -24 14 -24 126 l0
115 55 0 55 0 0 50 0 50 -55 0 -55 0 0 55 0 55 -55 0 -55 0 0 -54z"/>
<path d="M7238 3810 c-15 -4 -41 -18 -58 -30 l-30 -21 0 25 c0 25 -3 26 -55
26 l-55 0 0 -285 0 -285 55 0 55 0 0 85 0 84 46 -24 c100 -53 217 -16 269 85
24 46 31 139 14 197 -17 64 -79 126 -141 141 -53 13 -62 14 -100 2z m105 -128
c10 -11 22 -37 27 -58 26 -111 -67 -197 -160 -149 -91 47 -74 207 24 234 37 9
84 -2 109 -27z"/>
<path d="M7682 3806 c-129 -42 -198 -192 -143 -311 50 -109 171 -160 292 -124
185 56 210 320 39 413 -60 32 -130 41 -188 22z m154 -130 c32 -32 40 -57 34
-111 -10 -90 -120 -137 -189 -80 -60 51 -65 140 -10 195 26 25 38 30 81 30 44
0 54 -4 84 -34z"/>
<path d="M8320 3590 l0 -220 55 0 55 0 0 220 0 220 -55 0 -55 0 0 -220z"/>
<path d="M9179 3792 c-45 -37 -17 -122 40 -122 43 0 71 26 71 66 0 64 -62 95
-111 56z m79 -8 c41 -29 18 -104 -33 -104 -51 0 -77 53 -44 93 23 31 45 34 77
11z"/>
<path d="M9197 3773 c-11 -10 -8 -61 3 -68 6 -3 10 1 10 9 0 20 16 21 24 1 3
-8 9 -15 13 -15 10 0 10 51 0 68 -9 13 -39 16 -50 5z m38 -23 c-3 -5 -10 -10
-16 -10 -5 0 -9 5 -9 10 0 6 7 10 16 10 8 0 12 -4 9 -10z"/>
</g>
</svg>
