<?xml version="1.0" standalone="no"?>
<!DOCTYPE svg PUBLIC "-//W3C//DTD SVG 20010904//EN"
 "http://www.w3.org/TR/2001/REC-SVG-20010904/DTD/svg10.dtd">
<svg version="1.0" xmlns="http://www.w3.org/2000/svg"
 width="1440.000000pt" height="733.000000pt" viewBox="0 0 1440.000000 733.000000"
 preserveAspectRatio="xMidYMid meet">

<g transform="translate(0.000000,733.000000) scale(0.100000,-0.100000)"
fill="#000000" stroke="none">
<path d="M0 3665 l0 -3665 7200 0 7200 0 0 3665 0 3665 -7200 0 -7200 0 0
-3665z m7695 3056 c664 -103 1230 -379 1696 -829 602 -580 939 -1372 939
-2207 0 -269 -28 -486 -97 -760 -138 -547 -425 -1044 -831 -1436 -351 -340
-727 -568 -1182 -718 -225 -73 -439 -119 -650 -136 -41 -4 -86 -9 -100 -11
-33 -5 -388 -5 -420 0 -14 2 -61 7 -105 11 -44 4 -143 18 -220 31 -1179 206
-2142 1101 -2430 2260 -81 324 -100 495 -92 839 6 263 18 363 74 605 42 186
69 275 134 440 258 654 734 1198 1364 1557 201 115 562 254 782 303 118 26
311 57 405 66 40 3 75 9 78 11 3 3 120 3 260 0 192 -3 289 -10 395 -26z"/>
<path d="M5645 4315 c-228 -42 -433 -230 -497 -454 -25 -87 -27 -252 -3 -341
38 -145 150 -297 278 -378 354 -223 824 -54 954 343 22 68 26 97 26 200 0 103
-4 131 -27 202 -45 139 -128 246 -255 331 -140 94 -307 128 -476 97z m285
-357 c108 -23 236 -69 274 -99 30 -24 34 -63 9 -91 -21 -24 -34 -23 -93 7 -77
39 -206 72 -330 85 -122 12 -207 8 -339 -17 l-85 -16 -23 27 c-28 32 -28 38
-5 65 53 66 370 86 592 39z m-80 -213 c73 -15 208 -64 258 -95 28 -17 33 -26
30 -52 -4 -45 -34 -53 -89 -24 -145 77 -356 111 -514 84 -49 -9 -97 -19 -106
-22 -9 -4 -26 1 -39 12 -18 14 -22 25 -16 45 5 22 16 29 62 43 119 34 272 38
414 9z m-5 -210 c80 -17 210 -77 219 -102 4 -10 -1 -24 -13 -37 -20 -19 -20
-19 -78 11 -89 48 -171 66 -303 66 -63 0 -143 -6 -176 -12 -34 -6 -69 -9 -78
-5 -19 7 -21 47 -3 62 38 31 314 42 432 17z"/>
<path d="M8411 4004 c-27 -35 -27 -65 2 -92 33 -31 80 -29 106 4 12 15 21 34
21 44 0 34 -39 70 -75 70 -24 0 -39 -7 -54 -26z"/>
<path d="M8695 3992 c-48 -23 -65 -49 -74 -111 -5 -41 -9 -46 -34 -49 -27 -3
-28 -6 -25 -50 3 -43 5 -47 31 -50 l27 -3 0 -170 0 -169 60 0 60 0 0 170 0
170 44 0 43 0 59 -141 c32 -78 65 -155 72 -170 11 -26 10 -31 -9 -50 -20 -20
-41 -21 -80 -5 -12 5 -20 -4 -34 -35 -19 -40 -19 -42 -1 -55 28 -20 100 -28
140 -14 52 17 79 56 132 192 26 68 69 178 95 246 27 68 49 125 49 128 0 3 -27
4 -61 2 l-61 -3 -43 -120 c-24 -66 -47 -131 -52 -143 -8 -21 -17 -5 -65 120
l-57 143 -86 3 -86 3 3 32 c3 31 4 32 53 33 l50 1 3 43 c2 23 -1 47 -6 52 -19
19 -106 19 -147 0z"/>
<path d="M6724 3962 c-100 -47 -134 -173 -67 -252 32 -39 59 -53 156 -79 99
-27 127 -45 127 -81 0 -78 -122 -91 -222 -23 l-51 34 -31 -38 c-17 -20 -31
-42 -31 -47 0 -18 79 -64 136 -80 102 -29 202 -17 259 31 43 35 60 74 60 131
0 90 -59 145 -191 177 -125 31 -162 77 -101 125 22 18 35 21 76 16 26 -3 69
-17 94 -32 l45 -27 28 34 c41 50 37 63 -27 95 -76 37 -198 44 -260 16z"/>
<path d="M8128 3893 c-3 -55 -4 -58 -31 -61 -27 -3 -28 -6 -25 -50 3 -43 5
-47 31 -50 l27 -3 0 -130 c0 -145 10 -178 60 -204 34 -18 94 -19 139 -4 30 11
32 13 29 58 -3 40 -6 45 -23 42 -82 -17 -96 5 -93 139 l3 95 55 5 55 5 0 50 0
49 -52 -3 c-49 -2 -53 -1 -59 23 -3 14 -4 42 -2 61 l4 35 -58 0 -57 0 -3 -57z"/>
<path d="M7258 3816 c-46 -25 -48 -25 -48 -5 0 18 -5 20 -55 17 l-56 -3 0
-280 0 -280 56 -3 55 -3 0 85 0 85 48 -25 c63 -34 150 -31 210 8 123 82 123
314 0 396 -60 39 -147 42 -210 8z m128 -92 c52 -34 71 -123 39 -184 -48 -93
-175 -74 -206 31 -33 109 78 211 167 153z"/>
<path d="M7725 3821 c-79 -35 -135 -124 -135 -213 0 -60 17 -103 61 -153 44
-50 100 -75 169 -75 85 0 127 16 180 69 39 39 50 59 61 104 24 111 -28 224
-125 268 -54 25 -157 25 -211 0z m166 -102 c78 -55 76 -184 -2 -224 -52 -27
-97 -20 -140 24 -35 34 -39 44 -39 87 1 58 15 88 56 115 38 25 89 24 125 -2z"/>
<path d="M8402 3613 l3 -218 58 -3 57 -3 0 221 0 220 -60 0 -60 0 2 -217z"/>
<path d="M9276 3808 c-9 -12 -16 -33 -16 -46 0 -26 41 -72 65 -72 20 0 57 19
67 34 14 21 8 73 -10 89 -28 25 -87 22 -106 -5z m105 -12 c26 -57 -18 -108
-72 -86 -62 26 -41 110 26 110 28 0 38 -5 46 -24z"/>
<path d="M9307 3803 c-10 -10 -8 -73 2 -73 5 0 11 6 14 13 4 10 7 10 18 0 20
-19 24 -16 24 17 0 38 -37 65 -58 43z m33 -23 c0 -5 -4 -10 -10 -10 -5 0 -10
5 -10 10 0 6 5 10 10 10 6 0 10 -4 10 -10z"/>
</g>
</svg>
